<svg width="111" height="24" viewBox="0 0 111 24" fill="none" xmlns="http://www.w3.org/2000/svg">
<path d="M11.9127 13.454H3.94053C3.94053 14.2284 4.19108 14.8016 4.69219 15.1699C5.19329 15.54 5.73426 15.7241 6.31699 15.7241C6.93388 15.7241 7.4198 15.6444 7.77476 15.4812C8.1335 15.3198 8.5416 14.9952 8.99715 14.5093L11.7381 15.876C10.5992 17.7893 8.70104 18.746 6.04366 18.746C4.38279 18.746 2.96109 18.1803 1.77665 17.0452C0.592218 15.912 0 14.5454 0 12.9453C0 11.347 0.592218 9.97468 1.77665 8.83011C2.96109 7.68743 4.38279 7.1142 6.04366 7.1142C7.78425 7.1142 9.20215 7.6191 10.2955 8.62511C11.3888 9.63302 11.9355 11.0737 11.9355 12.9453C11.9355 13.1996 11.9279 13.3685 11.9127 13.454ZM4.04682 11.3584H8.23031C8.14299 10.7871 7.91901 10.3486 7.55457 10.0449C7.19013 9.73742 6.72129 9.58177 6.14995 9.58177C5.52167 9.58177 5.02056 9.74691 4.64663 10.0753C4.27649 10.3999 4.07719 10.8269 4.04682 11.3584Z" fill="#DCDCDC"/>
<path d="M18.8326 10.2195C18.1189 10.2195 17.5039 10.4853 16.9876 11.0168C16.4713 11.5444 16.2131 12.1784 16.2131 12.9225C16.2131 13.6779 16.4713 14.3195 16.9876 14.851C17.5039 15.3787 18.1189 15.6406 18.8326 15.6406C19.1704 15.6406 19.495 15.5989 19.8044 15.5115C20.1119 15.4261 20.3378 15.3407 20.4801 15.2534L20.6699 15.1243L21.9607 17.7665C21.8582 17.8387 21.7177 17.926 21.5355 18.0323C21.3571 18.1386 20.9509 18.2828 20.3131 18.465C19.6791 18.6511 18.9996 18.746 18.2707 18.746C16.6554 18.746 15.2375 18.1803 14.0189 17.0452C12.7984 15.912 12.1891 14.5511 12.1891 12.9604C12.1891 11.3622 12.7984 9.98797 14.0189 8.8377C15.2375 7.68933 16.6554 7.1142 18.2707 7.1142C18.9996 7.1142 19.6696 7.20151 20.2827 7.37234C20.8996 7.54507 21.3381 7.7178 21.5962 7.88864L21.9607 8.13919L20.6699 10.7358C20.1992 10.3923 19.5861 10.2195 18.8326 10.2195Z" fill="#DCDCDC"/>
<path d="M49.4464 8.80734C50.479 9.93673 50.9953 11.3167 50.9953 12.9453C50.9953 14.5701 50.479 15.9443 49.4464 17.068C48.4176 18.1879 47.1117 18.746 45.5287 18.746C44.0709 18.746 42.8713 18.2259 41.9298 17.1819H41.8843V18.4271H38.1335V0H41.9298V8.48845C42.8713 7.57355 44.0709 7.1142 45.5287 7.1142C47.1117 7.1142 48.4176 7.67985 49.4464 8.80734ZM46.2576 14.7978C46.7283 14.3176 46.9637 13.7007 46.9637 12.9453C46.9637 12.186 46.715 11.5634 46.2196 11.0775C45.728 10.5916 45.1187 10.3486 44.3898 10.3486C43.6761 10.3486 43.0725 10.5916 42.5828 11.0775C42.0912 11.5634 41.8463 12.186 41.8463 12.9453C41.8463 13.6855 42.0836 14.2967 42.56 14.7827C43.0402 15.2686 43.6495 15.5115 44.3898 15.5115C45.1642 15.5115 45.7868 15.2743 46.2576 14.7978Z" fill="#DCDCDC"/>
<path d="M55.62 7.43309V12.6643C55.62 13.7482 55.7813 14.5207 56.1059 14.9801C56.4343 15.4356 56.9905 15.6634 57.7763 15.6634C58.5659 15.6634 59.124 15.4356 59.4542 14.9801C59.7826 14.5207 59.9477 13.7482 59.9477 12.6643V7.43309H63.7364V13.583C63.7364 15.4109 63.26 16.7301 62.309 17.5388C61.3619 18.3436 59.8509 18.746 57.7763 18.746C55.7054 18.746 54.1945 18.3436 53.2435 17.5388C52.2964 16.7301 51.8237 15.4109 51.8237 13.583V7.43309H55.62Z" fill="#DCDCDC"/>
<path d="M66.1125 17.068C65.0837 15.9443 64.5712 14.5701 64.5712 12.9453C64.5712 11.3167 65.0837 9.93673 66.1125 8.80734C67.1393 7.67985 68.4472 7.1142 70.0378 7.1142C71.4899 7.1142 72.6895 7.57355 73.6367 8.48845V0H77.4253V18.4271H73.6746V17.1819H73.6367C72.6895 18.2259 71.4899 18.746 70.0378 18.746C68.4472 18.746 67.1393 18.1879 66.1125 17.068ZM69.3317 11.0775C68.8401 11.5634 68.5952 12.186 68.5952 12.9453C68.5952 13.7007 68.8306 14.3176 69.3013 14.7978C69.7758 15.2743 70.3984 15.5115 71.1691 15.5115C71.9131 15.5115 72.5224 15.2686 72.9989 14.7827C73.4791 14.2967 73.7202 13.6855 73.7202 12.9453C73.7202 12.186 73.4715 11.5634 72.9761 11.0775C72.4845 10.5916 71.8828 10.3486 71.1691 10.3486C70.4402 10.3486 69.8271 10.5916 69.3317 11.0775Z" fill="#DCDCDC"/>
<path d="M80.0153 17.068C78.9865 15.9443 78.474 14.5701 78.474 12.9453C78.474 11.3167 78.9865 9.93673 80.0153 8.80734C81.0422 7.67985 82.35 7.1142 83.9406 7.1142C85.3927 7.1142 86.5923 7.57355 87.5395 8.48845V0H91.3282V18.4271H87.5774V17.1819H87.5395C86.5923 18.2259 85.3927 18.746 83.9406 18.746C82.35 18.746 81.0422 18.1879 80.0153 17.068ZM83.2345 11.0775C82.7429 11.5634 82.498 12.186 82.498 12.9453C82.498 13.7007 82.7334 14.3176 83.2041 14.7978C83.6787 15.2743 84.3013 15.5115 85.0719 15.5115C85.816 15.5115 86.4253 15.2686 86.9017 14.7827C87.3819 14.2967 87.623 13.6855 87.623 12.9453C87.623 12.186 87.3743 11.5634 86.8789 11.0775C86.3873 10.5916 85.7856 10.3486 85.0719 10.3486C84.343 10.3486 83.7299 10.5916 83.2345 11.0775Z" fill="#DCDCDC"/>
<path d="M101.503 7.43309H105.876L97.2438 24H92.8705L96.6591 16.7112L91.4583 7.43309H95.824L98.8913 13.0668L101.503 7.43309Z" fill="#DCDCDC"/>
<path d="M108.443 13.8412C109.126 13.8412 109.707 14.0823 110.189 14.5625C110.67 15.0389 110.911 15.6216 110.911 16.3088C110.911 16.9769 110.67 17.552 110.189 18.0323C109.707 18.5068 109.126 18.746 108.443 18.746C107.769 18.746 107.192 18.5068 106.712 18.0323C106.236 17.552 105.998 16.9769 105.998 16.3088C105.998 15.6216 106.236 15.0389 106.712 14.5625C107.192 14.0823 107.769 13.8412 108.443 13.8412Z" fill="#DCDCDC"/>
<mask id="mask0_51_2713" style="mask-type:luminance" maskUnits="userSpaceOnUse" x="29" y="10" width="6" height="9">
<path d="M29.3054 10.8706H34.3601V18.6606H29.3054V10.8706Z" fill="white"/>
</mask>
<g mask="url(#mask0_51_2713)">
<path d="M33.878 16.5555C34.9238 14.7428 34.603 12.2164 32.9004 11.1933C32.3329 10.8535 31.4787 10.6979 31.0137 11.2104C31.5243 11.1041 32.0766 11.3907 32.4544 11.8045C33.2212 12.6473 33.43 14.236 32.8112 16.007L33.1358 15.9709L32.3708 16.7624L32.1829 15.633L32.4847 15.8741C32.7163 15.4072 32.9403 13.8905 32.1924 12.8959C31.5053 11.9848 30.6075 12.4859 30.5486 13.3192C30.4898 14.1601 30.9643 14.9611 30.9909 15.8039C31.027 16.9427 30.3265 18.0645 29.3073 18.56C31.0573 18.9529 32.9327 18.1917 33.878 16.5555Z" fill="#13F287"/>
</g>
<mask id="mask1_51_2713" style="mask-type:luminance" maskUnits="userSpaceOnUse" x="22" y="10" width="8" height="9">
<path d="M22.698 10.8953H29.9716V18.6701H22.698V10.8953Z" fill="white"/>
</mask>
<g mask="url(#mask1_51_2713)">
<path d="M23.6433 16.0924C24.6891 17.9051 27.039 18.8902 28.7758 17.926C29.3547 17.6052 29.9166 16.9446 29.704 16.2841C29.5427 16.7814 29.0169 17.1155 28.4683 17.2351C27.3579 17.478 25.8755 16.8649 24.6512 15.4432L24.5221 15.7431L24.2165 14.684L25.2889 15.0864L24.9302 15.2268C25.2187 15.6615 26.4202 16.6125 27.654 16.4625C28.7891 16.3221 28.8024 15.2952 28.1096 14.8282C27.4111 14.3556 26.481 14.367 25.7369 13.9684C24.7328 13.4312 24.1121 12.2638 24.1937 11.1326C22.977 12.4518 22.6999 14.4562 23.6433 16.0924Z" fill="#13F287"/>
</g>
<mask id="mask2_51_2713" style="mask-type:luminance" maskUnits="userSpaceOnUse" x="24" y="7" width="10" height="6">
<path d="M24.6265 7.46157H33.3731V12.839H24.6265V7.46157Z" fill="white"/>
</mask>
<g mask="url(#mask2_51_2713)">
<path d="M29.1611 7.46157C27.0693 7.46157 25.0402 9.00286 25.0061 10.9883C24.9947 11.6508 25.287 12.4669 25.9646 12.6131C25.6154 12.2259 25.5888 11.6033 25.7596 11.0699C26.1051 9.98419 27.3768 9.00855 29.2199 8.65929L29.0263 8.39735L30.095 8.66119L29.2104 9.39007L29.2674 9.00855C28.7473 9.04272 27.3218 9.60646 26.8359 10.751C26.3898 11.8007 27.2705 12.3284 28.0222 11.962C28.7814 11.5919 29.237 10.7814 29.9545 10.3353C30.9225 9.73553 32.2417 9.78109 33.1813 10.417C32.6479 8.70485 31.0497 7.46157 29.1611 7.46157Z" fill="#13F287"/>
</g>
</svg>
