<svg width="54" height="54" viewBox="0 0 54 54" fill="none" xmlns="http://www.w3.org/2000/svg">
<rect width="54" height="54" rx="20" fill="#121212"/>
<mask id="mask0_461_3353" style="mask-type:luminance" maskUnits="userSpaceOnUse" x="29" y="20" width="16" height="24">
<path d="M29.3076 20.4922H44.1721V43.4001H29.3076V20.4922Z" fill="white"/>
</mask>
<g mask="url(#mask0_461_3353)">
<path d="M42.7543 37.2071C45.8299 31.8765 44.8866 24.447 39.8797 21.4384C38.2107 20.4393 35.6989 19.9816 34.3313 21.4887C35.8328 21.1761 37.4571 22.0189 38.5679 23.2358C40.823 25.7141 41.437 30.3861 39.6173 35.594L40.5718 35.4879L38.3223 37.8156L37.7697 34.4944L38.6572 35.2033C39.3382 33.8301 39.9969 29.3702 37.7976 26.4453C35.777 23.7661 33.1368 25.2397 32.9638 27.6901C32.7907 30.1628 34.1862 32.5184 34.2643 34.9967C34.3704 38.3458 32.3107 41.6447 29.3132 43.1016C34.4597 44.257 39.9746 42.0187 42.7543 37.2071Z" fill="#13F287"/>
</g>
<mask id="mask1_461_3353" style="mask-type:luminance" maskUnits="userSpaceOnUse" x="9" y="20" width="23" height="24">
<path d="M9.87708 20.5645H31.2667V43.4277H9.87708V20.5645Z" fill="white"/>
</mask>
<g mask="url(#mask1_461_3353)">
<path d="M12.6567 35.849C15.7323 41.1797 22.6426 44.0767 27.75 41.2411C29.4525 40.2978 31.1047 38.3553 30.4795 36.4128C30.0051 37.8752 28.4589 38.8576 26.8457 39.2093C23.5804 39.9238 19.2209 38.1208 15.6207 33.94L15.2411 34.822L14.3424 31.7073L17.4962 32.8907L16.4412 33.3037C17.2896 34.582 20.8229 37.3785 24.4511 36.9375C27.7891 36.5244 27.8282 33.5047 25.7908 32.1315C23.7367 30.7416 21.0016 30.7751 18.8135 29.6029C15.8607 28.0233 14.0354 24.5905 14.2754 21.2637C10.6975 25.1431 9.88252 31.0375 12.6567 35.849Z" fill="#13F287"/>
</g>
<mask id="mask2_461_3353" style="mask-type:luminance" maskUnits="userSpaceOnUse" x="15" y="10" width="27" height="17">
<path d="M15.5481 10.4668H41.2692V26.2802H15.5481V10.4668Z" fill="white"/>
</mask>
<g mask="url(#mask2_461_3353)">
<path d="M28.8831 10.4668C22.7319 10.4668 16.7649 14.9993 16.6644 20.8379C16.6309 22.7859 17.4905 25.1861 19.4832 25.6159C18.4562 24.4772 18.378 22.6464 18.8804 21.0779C19.8963 17.8851 23.6361 15.016 29.0561 13.9889L28.4867 13.2186L31.6293 13.9945L29.0282 16.138L29.1956 15.016C27.6662 15.1165 23.4742 16.7743 22.0453 20.1401C20.7336 23.2269 23.3235 24.7786 25.5339 23.7014C27.7667 22.6129 29.1063 20.2294 31.2163 18.9177C34.063 17.1538 37.9424 17.2878 40.7054 19.1577C39.1369 14.1229 34.437 10.4668 28.8831 10.4668Z" fill="#13F287"/>
</g>
</svg>
