<svg width="8" height="8" viewBox="0 0 8 8" fill="none" xmlns="http://www.w3.org/2000/svg">
<g clip-path="url(#clip0_485_7)">
<path d="M6.31248 4.21924C6.22388 4.32969 6.12064 4.42905 6.02065 4.5291C6.00593 4.54389 5.99121 4.55867 5.9765 4.57346C5.93651 4.61364 5.89646 4.65377 5.85641 4.69389C5.81306 4.73734 5.76975 4.78083 5.72643 4.82432C5.62212 4.92901 5.51773 5.03363 5.41333 5.13823C5.38383 5.16779 5.35432 5.19736 5.32481 5.22693C5.14129 5.41085 4.95774 5.59474 4.77412 5.77856C4.73171 5.82101 4.68931 5.86346 4.64691 5.90591C4.63637 5.91646 4.62584 5.92701 4.61498 5.93787C4.44399 6.10906 4.27317 6.2804 4.10241 6.45181C3.92685 6.62803 3.75115 6.8041 3.5753 6.98003C3.47666 7.07872 3.37809 7.17748 3.27969 7.2764C3.19597 7.36055 3.11212 7.44457 3.0281 7.52842C2.98526 7.57118 2.94248 7.614 2.89988 7.65699C2.85365 7.70363 2.80713 7.74997 2.76057 7.79628C2.74054 7.81664 2.74054 7.81664 2.7201 7.83741C2.62644 7.92984 2.54077 7.99053 2.40867 8.00879C2.19058 8.00692 2.09121 7.94774 1.93748 7.79736C1.92121 7.78188 1.90494 7.76639 1.88866 7.75092C1.75077 7.61825 1.64315 7.49967 1.63573 7.29932C1.64432 7.01497 1.92372 6.82457 2.11086 6.63784C2.13951 6.60919 2.16817 6.58053 2.19682 6.55187C2.25825 6.49043 2.31972 6.42901 2.3812 6.36762C2.4701 6.27885 2.55895 6.19004 2.64778 6.10122C2.79196 5.95708 2.93617 5.81298 3.0804 5.66889C3.22042 5.52902 3.36042 5.38913 3.5004 5.24921C3.50904 5.24057 3.51769 5.23193 3.52659 5.22303C3.56996 5.17968 3.61333 5.13634 3.6567 5.09299C4.01587 4.73398 4.3751 4.37503 4.73436 4.01611C4.71323 3.96895 4.6897 3.93635 4.65312 3.9C4.64276 3.88963 4.63241 3.87926 4.62174 3.86857C4.61033 3.85731 4.59892 3.84605 4.58717 3.83444C4.57508 3.82238 4.56298 3.81031 4.55052 3.79788C4.50985 3.75734 4.46906 3.71691 4.42828 3.67648C4.39915 3.64748 4.37002 3.61847 4.3409 3.58946C4.27811 3.52692 4.21527 3.46444 4.15239 3.40198C4.05295 3.3032 3.95367 3.20426 3.8544 3.1053C3.82043 3.07143 3.78645 3.03756 3.75247 3.00369C3.74398 2.99523 3.73548 2.98676 3.72674 2.97804C3.63007 2.8817 3.53337 2.78539 3.43666 2.68909C3.42782 2.68029 3.41898 2.67149 3.40987 2.66242C3.26672 2.5199 3.12347 2.37746 2.98021 2.23505C2.83304 2.08875 2.68602 1.94229 2.53913 1.79571C2.44857 1.70536 2.3579 1.61514 2.26706 1.52508C2.20476 1.46329 2.1426 1.40136 2.08055 1.33931C2.04478 1.30356 2.00894 1.26789 1.97296 1.23236C1.93387 1.19373 1.89504 1.15487 1.85625 1.11594C1.84495 1.10488 1.83364 1.09383 1.822 1.08244C1.71404 0.973079 1.64882 0.855142 1.6367 0.700683C1.64663 0.549255 1.69599 0.45998 1.8031 0.353737C1.83308 0.323614 1.86223 0.292756 1.89146 0.261902C1.91459 0.237892 1.93775 0.213905 1.96092 0.189941C1.97185 0.178409 1.98278 0.166877 1.99404 0.154995C2.08359 0.0641002 2.16667 0.00984279 2.29442 -0.00781268C2.5863 -0.00531795 2.71855 0.15416 2.91615 0.351963C2.93761 0.373354 2.93761 0.373354 2.95951 0.395177C2.99877 0.434311 3.03798 0.473492 3.07718 0.512682C3.11964 0.555111 3.16214 0.597496 3.20464 0.639888C3.29729 0.732333 3.38989 0.824836 3.48248 0.917352C3.54034 0.975171 3.59821 1.03298 3.65609 1.09078C3.81652 1.25103 3.97694 1.41129 4.13731 1.5716C4.14755 1.58184 4.15779 1.59207 4.16833 1.60262C4.18372 1.618 4.18372 1.618 4.19942 1.6337C4.22021 1.65448 4.241 1.67526 4.26179 1.69604C4.2721 1.70635 4.28241 1.71666 4.29304 1.72728C4.46036 1.89454 4.62779 2.0617 4.79527 2.22881C4.96746 2.40063 5.13956 2.57254 5.31158 2.74453C5.40806 2.84101 5.50459 2.93744 5.60121 3.03378C5.68341 3.11574 5.76552 3.19777 5.84754 3.27992C5.88936 3.3218 5.93121 3.36364 5.97317 3.40538C6.01869 3.45066 6.06403 3.49613 6.10936 3.54162C6.12919 3.56127 6.12919 3.56127 6.14943 3.58131C6.32283 3.75617 6.43704 3.9791 6.31248 4.21924Z" fill="white"/>
</g>
<defs>
<clipPath id="clip0_485_7">
<rect width="8" height="8" fill="white" transform="translate(8) rotate(90)"/>
</clipPath>
</defs>
</svg>
