<svg width="8" height="8" viewBox="0 0 8 8" fill="none" xmlns="http://www.w3.org/2000/svg">
<g clip-path="url(#clip0_485_5)">
<path d="M1.68752 4.21924C1.77612 4.32969 1.87936 4.42905 1.97935 4.5291C1.99407 4.54389 2.00879 4.55867 2.0235 4.57346C2.06349 4.61364 2.10354 4.65377 2.14359 4.69389C2.18694 4.73734 2.23025 4.78083 2.27357 4.82432C2.37788 4.92901 2.48227 5.03363 2.58667 5.13823C2.61617 5.16779 2.64568 5.19736 2.67519 5.22693C2.85871 5.41085 3.04226 5.59474 3.22588 5.77856C3.26829 5.82101 3.31069 5.86346 3.35309 5.90591C3.36363 5.91646 3.37416 5.92701 3.38502 5.93787C3.55601 6.10906 3.72683 6.2804 3.89759 6.45181C4.07315 6.62803 4.24885 6.8041 4.4247 6.98003C4.52334 7.07872 4.62191 7.17748 4.72031 7.2764C4.80403 7.36055 4.88788 7.44457 4.9719 7.52842C5.01474 7.57118 5.05752 7.614 5.10012 7.65699C5.14635 7.70363 5.19287 7.74997 5.23943 7.79628C5.25946 7.81664 5.25946 7.81664 5.2799 7.83741C5.37356 7.92984 5.45923 7.99053 5.59133 8.00879C5.80942 8.00692 5.90879 7.94774 6.06252 7.79736C6.07879 7.78188 6.09506 7.76639 6.11134 7.75092C6.24923 7.61825 6.35685 7.49967 6.36427 7.29932C6.35568 7.01497 6.07628 6.82457 5.88914 6.63784C5.86049 6.60919 5.83183 6.58053 5.80318 6.55187C5.74175 6.49043 5.68028 6.42901 5.6188 6.36762C5.5299 6.27885 5.44105 6.19004 5.35222 6.10122C5.20804 5.95708 5.06383 5.81298 4.9196 5.66889C4.77958 5.52902 4.63958 5.38913 4.4996 5.24921C4.49096 5.24057 4.48231 5.23193 4.47341 5.22303C4.43004 5.17968 4.38667 5.13634 4.3433 5.09299C3.98413 4.73398 3.6249 4.37503 3.26564 4.01611C3.28677 3.96895 3.3103 3.93635 3.34688 3.9C3.35724 3.88963 3.36759 3.87926 3.37826 3.86857C3.38967 3.85731 3.40108 3.84605 3.41283 3.83444C3.42492 3.82238 3.43702 3.81031 3.44948 3.79788C3.49015 3.75734 3.53094 3.71691 3.57172 3.67648C3.60085 3.64748 3.62998 3.61847 3.6591 3.58946C3.72189 3.52692 3.78473 3.46444 3.84761 3.40198C3.94705 3.3032 4.04633 3.20426 4.1456 3.1053C4.17957 3.07143 4.21355 3.03756 4.24753 3.00369C4.25602 2.99523 4.26452 2.98676 4.27326 2.97804C4.36993 2.8817 4.46663 2.78539 4.56334 2.68909C4.57218 2.68029 4.58102 2.67149 4.59013 2.66242C4.73328 2.5199 4.87653 2.37746 5.01979 2.23505C5.16696 2.08875 5.31398 1.94229 5.46087 1.79571C5.55143 1.70536 5.6421 1.61514 5.73294 1.52508C5.79524 1.46329 5.8574 1.40136 5.91945 1.33931C5.95522 1.30356 5.99106 1.26789 6.02704 1.23236C6.06613 1.19373 6.10496 1.15487 6.14375 1.11594C6.15505 1.10488 6.16636 1.09383 6.178 1.08244C6.28596 0.973079 6.35118 0.855142 6.3633 0.700683C6.35337 0.549255 6.30401 0.45998 6.1969 0.353737C6.16692 0.323614 6.13777 0.292756 6.10854 0.261902C6.08541 0.237892 6.06225 0.213905 6.03908 0.189941C6.02815 0.178409 6.01722 0.166877 6.00596 0.154995C5.91641 0.0641002 5.83333 0.00984279 5.70558 -0.00781268C5.4137 -0.00531795 5.28145 0.15416 5.08385 0.351963C5.06239 0.373354 5.06239 0.373354 5.04049 0.395177C5.00123 0.434311 4.96202 0.473492 4.92282 0.512682C4.88036 0.555111 4.83786 0.597496 4.79536 0.639888C4.70271 0.732333 4.61011 0.824836 4.51752 0.917352C4.45966 0.975171 4.40179 1.03298 4.34391 1.09078C4.18348 1.25103 4.02306 1.41129 3.86269 1.5716C3.85245 1.58184 3.84221 1.59207 3.83167 1.60262C3.81628 1.618 3.81628 1.618 3.80058 1.6337C3.77979 1.65448 3.759 1.67526 3.73821 1.69604C3.7279 1.70635 3.71759 1.71666 3.70696 1.72728C3.53964 1.89454 3.37221 2.0617 3.20473 2.22881C3.03254 2.40063 2.86044 2.57254 2.68842 2.74453C2.59194 2.84101 2.49541 2.93744 2.39879 3.03378C2.31659 3.11574 2.23448 3.19777 2.15246 3.27992C2.11064 3.3218 2.06879 3.36364 2.02683 3.40538C1.98131 3.45066 1.93597 3.49613 1.89064 3.54162C1.87081 3.56127 1.87081 3.56127 1.85057 3.58131C1.67717 3.75617 1.56296 3.9791 1.68752 4.21924Z" fill="white"/>
</g>
<defs>
<clipPath id="clip0_485_5">
<rect width="8" height="8" fill="white" transform="matrix(4.37114e-08 1 1 -4.37114e-08 0 0)"/>
</clipPath>
</defs>
</svg>
