<svg width="239" height="180" viewBox="0 0 239 180" fill="none" xmlns="http://www.w3.org/2000/svg">
<path d="M228.531 79.1943C225.302 75.1656 220.788 72.6279 216.706 72.3125C216.903 73.4044 217.11 74.4942 217.3 75.5869C217.993 77.4953 218.666 79.4113 219.323 81.3318C222.534 85.0346 225.144 89.2585 226.978 93.804C227.446 94.9635 227.895 96.1878 228.81 97.0414C230.541 98.6557 234.684 97.2819 236.588 96.4619C236.697 96.4149 236.801 96.3537 236.909 96.3017C235.228 89.9332 232.355 83.9662 228.531 79.1943Z" fill="#C1121F"/>
<path d="M228.81 97.0441C227.895 96.1905 227.446 94.9663 226.978 93.8067C225.144 89.2611 222.533 85.0372 219.323 81.3345C220.721 85.4203 222.022 89.5374 223.107 93.72C223.999 97.1558 224.722 100.695 225.246 104.275C226.909 115.65 226.506 127.45 222.718 137.8C227.195 136.604 231.361 132.533 233.479 129.026C239.133 119.666 239.829 107.376 236.908 96.3048C236.801 96.3567 236.697 96.4179 236.588 96.4649C234.684 97.2846 230.541 98.6584 228.81 97.0441Z" fill="#C1121F"/>
<path d="M9.78866 97.0449C10.7029 96.1914 11.1517 94.9672 11.6199 93.8075C13.5464 89.0335 16.3189 84.6046 19.7558 80.7722C20.5739 78.4004 21.414 76.0366 22.282 73.682C22.3645 73.2157 22.4571 72.7523 22.541 72.2861C18.2951 72.3652 13.4683 74.9541 10.0677 79.1978C6.24306 83.9699 3.3704 89.9369 1.68994 96.3054C1.79667 96.3574 1.90048 96.4186 2.01012 96.4656C3.91441 97.2854 8.05775 98.6592 9.78866 97.0449Z" fill="#C1121F"/>
<path d="M15.773 93.7203C16.5 90.9194 17.3353 88.1533 18.2167 85.4023C18.7127 83.8534 19.2255 82.3101 19.7562 80.772C16.3194 84.6043 13.5469 89.0332 11.6204 93.8073C11.1523 94.9667 10.7034 96.1911 9.78911 97.0446C8.0582 98.6589 3.91486 97.2852 2.01039 96.4652C1.90075 96.4181 1.79694 96.3569 1.69021 96.305C-1.23161 107.376 -0.535901 119.666 5.11925 129.027C7.28763 132.615 11.5974 136.795 16.1926 137.88C11.18 124.256 12.0402 108.104 15.773 93.7203Z" fill="#C1121F"/>
<path d="M223.108 93.7206C222.022 89.538 220.721 85.4209 219.323 81.3351C218.666 79.4147 217.993 77.4984 217.3 75.5902C217.111 74.4976 216.903 73.4077 216.706 72.3158C213.325 53.5711 208.751 35.0413 202.984 16.8881C201.316 11.6392 199.315 6.0865 194.886 2.81634C190.069 -0.739916 183.272 -0.698551 177.77 1.65832C172.266 4.01646 167.86 8.3621 164.039 12.9732C159.285 18.7111 155.259 24.9458 151.697 31.4725C130.309 28.3093 108.243 27.3561 86.7335 29.9897C83.3762 24.0021 79.6064 18.2748 75.2134 12.9732C71.3923 8.3621 66.9865 4.01664 61.4836 1.65832C55.9807 -0.698551 49.1838 -0.739734 44.3673 2.81634C39.9381 6.08632 37.9367 11.6392 36.2692 16.8881C30.5046 35.032 25.9229 53.5504 22.5415 72.2859C22.4576 72.7522 22.365 73.2156 22.2825 73.6818C21.4145 76.0364 20.5744 78.4002 19.7563 80.772C19.2256 82.3102 18.7127 83.8534 18.2168 85.4023C18.2743 85.4699 18.3328 85.539 18.3904 85.6066C24.3848 92.6435 31.0701 99.0626 38.2875 104.818C38.6446 102.804 39.0963 100.814 39.6314 98.8711C40.1785 96.883 40.8436 94.9889 41.5828 93.1546C47.7131 77.9562 60.2756 67.9653 76.9228 61.7489C104.299 51.5281 134.806 51.6113 161.959 61.7489C163.46 62.3098 164.916 62.9128 166.351 63.5363C182.727 70.653 194.572 81.8889 199.25 98.8711C200.395 103.028 201.168 107.401 201.411 111.768C202.264 114.161 202.855 116.629 203.114 119.113C210.908 114.823 218.327 109.858 225.246 104.275C224.723 100.696 223.999 97.1564 223.108 93.7206Z" fill="#EBF2E5"/>
<path d="M57.0427 170.256C57.2447 170.321 57.4469 170.386 57.6489 170.45C97.8507 183.183 141.031 183.183 181.232 170.45C181.434 170.386 181.637 170.321 181.839 170.256C182.614 170.009 183.39 169.755 184.166 169.497C195.396 165.751 206.554 160.768 214.379 151.953C218.109 147.751 220.83 142.953 222.719 137.798C226.506 127.447 226.91 115.648 225.246 104.272C218.327 109.855 210.908 114.82 203.114 119.11C203.552 123.286 203.089 127.497 201.488 131.428C193.55 150.918 170.997 155.99 152.485 159.639C127.088 164.645 98.7962 163.298 73.7277 157.268C55.3758 152.854 38.0249 142.14 37.9794 122.037C37.046 116.439 37.2751 110.53 38.2874 104.815C31.07 99.0597 24.3847 92.6406 18.3903 85.6037C18.3327 85.5361 18.2743 85.467 18.2167 85.3994C17.3352 88.1506 16.5 90.9166 15.773 93.7175C12.0401 108.102 11.18 124.253 16.1928 137.877C18.0794 143.002 20.7914 147.772 24.5015 151.953C32.3272 160.768 43.4838 165.751 54.7148 169.496C55.4912 169.755 56.2674 170.009 57.0427 170.256Z" fill="#C6CAD6"/>
<path d="M192.875 138.939C186.766 145.424 177.876 148.894 169.11 151.533C168.963 151.578 168.815 151.622 168.668 151.666C137.859 160.86 100.843 160.818 70.2129 151.666C70.0655 151.622 69.9169 151.578 69.7703 151.533C61.0056 148.894 52.115 145.424 46.0052 138.939C41.5168 134.176 39.0226 128.303 37.979 122.039C38.0245 142.141 55.3754 152.856 73.7273 157.27C98.7959 163.3 127.088 164.647 152.485 159.641C170.997 155.992 193.55 150.92 201.488 131.43C203.089 127.499 203.552 123.288 203.114 119.112C202.855 116.627 202.264 114.16 201.411 111.767C201.964 121.71 199.762 131.629 192.875 138.939Z" fill="#A1A8C3"/>
<path d="M166.471 38.5682C170.709 41.0546 175.412 42.7813 179.774 45.1659C183.43 47.164 187.067 49.1684 190.651 51.286C193.674 53.0713 200.61 58.5764 200.61 58.5764C200.61 58.5764 194.331 49.2076 190.501 44.9638C187.727 41.8895 184.667 39.1597 181.225 37.1851C172.982 32.4566 152.525 31.6758 152.525 31.6758C152.525 31.6758 157.606 33.8852 159.186 34.6575C161.662 35.8684 164.093 37.1731 166.471 38.5682Z" fill="#C6CAD6"/>
<path d="M58.6347 44.0189C62.9971 41.6344 67.6996 39.9074 71.9376 37.4219C74.316 36.0268 76.7468 34.7221 79.224 33.5105C80.8042 32.739 85.8836 30.5288 85.8836 30.5288C85.8836 30.5288 65.4274 31.3096 57.1841 36.0389C53.7423 38.0127 50.6824 40.7431 47.9077 43.8176C44.0782 48.0606 37.7998 57.4301 37.7998 57.4301C37.7998 57.4301 44.734 51.9243 47.7569 50.139C51.3419 48.0222 54.9785 46.017 58.6347 44.0189Z" fill="#C6CAD6"/>
<path d="M186.654 79.7858C180.88 73.2684 173.755 68.1833 166.352 63.5366C164.917 62.9131 163.46 62.3103 161.959 61.7492C134.807 51.6116 104.299 51.5283 76.9234 61.7492C60.2762 67.9654 47.7138 77.9563 41.5834 93.1549C40.9211 97.5311 40.6322 101.946 40.8635 106.377C41.4796 118.205 46.2269 130.237 55.5309 137.56C63.6761 143.971 74.2926 146.167 84.547 147.665C109.569 151.32 135.484 151.888 159.774 144.856C168.293 142.39 176.664 138.936 183.614 133.425C190.563 127.914 196.014 120.157 197.466 111.404C199.351 100.042 194.291 88.4043 186.654 79.7858Z" fill="#C1121F"/>
<path d="M69.7709 151.534C69.9175 151.579 70.0661 151.623 70.2135 151.667C100.844 160.82 137.86 160.861 168.668 151.667C168.816 151.623 168.963 151.579 169.111 151.534C177.876 148.896 186.766 145.425 192.875 138.94C199.763 131.63 201.965 121.711 201.411 111.769C201.168 107.401 200.396 103.028 199.25 98.8714C194.572 81.8892 182.727 70.6533 166.351 63.5366C173.754 68.1833 180.879 73.2684 186.654 79.7858C194.29 88.4043 199.351 100.042 197.466 111.404C196.013 120.157 190.563 127.914 183.614 133.426C176.664 138.936 168.292 142.39 159.774 144.857C135.484 151.888 109.569 151.32 84.5465 147.665C74.292 146.168 63.6754 143.971 55.5304 137.561C46.2264 130.237 41.4791 118.205 40.863 106.377C40.6319 101.946 40.9205 97.5313 41.5829 93.1551C40.8437 94.9895 40.1786 96.8835 39.6315 98.8716C39.0964 100.814 38.6447 102.804 38.2876 104.819C37.2751 110.533 37.0462 116.443 37.9796 122.04C39.0234 128.304 41.5175 134.177 46.0058 138.941C52.1156 145.425 61.0061 148.896 69.7709 151.534Z" fill="#C1121F"/>
<path d="M176.069 80.2284C171.122 74.736 164.568 71.0141 157.642 68.606C143.76 63.7793 128.432 63.6583 113.94 64.8697C106.655 65.4791 99.418 66.6613 92.3036 68.3405C72.785 72.9458 49.7989 83.455 45.8824 105.481C44.434 113.628 47.9598 123.305 55.772 126.021C60.3444 127.611 65.3627 126.583 70.0901 125.543C71.032 125.335 71.974 125.128 72.9152 124.921C68.5256 123.837 64.4805 121.412 61.6974 117.847C56.3113 110.946 56.8278 101.784 60.8287 94.5984C65.103 86.9194 73.3554 81.497 82.6345 83.5C95.5638 86.2909 103.912 105.461 95.6941 116.419C94.4469 118.082 92.9729 119.575 91.3409 120.863C106.373 117.554 121.405 114.245 136.436 110.935C137.81 110.633 139.184 110.33 140.558 110.028C139.523 104.828 140.636 99.2928 143.249 94.5984C147.524 86.9194 155.776 81.497 165.056 83.5C172.078 85.0161 177.741 91.3654 180.14 98.6051C187.401 91.6415 180.91 85.6039 176.069 80.2284Z" fill="#C1121F"/>
<path d="M95.6947 116.421C103.912 105.464 95.5645 86.2933 82.6351 83.5024C73.3561 81.4994 65.1035 86.922 60.8294 94.6008C56.8283 101.787 56.3117 110.949 61.6981 117.849C64.4811 121.415 68.5263 123.839 72.9159 124.923C76.4566 125.797 80.2201 125.801 83.7302 124.813C86.5113 124.03 89.0831 122.649 91.3418 120.866C92.9734 119.578 94.4475 118.084 95.6947 116.421Z" fill="#DCDCDC"/>
<path d="M165.057 83.5024C155.777 81.4994 147.525 86.922 143.25 94.6008C140.637 99.2952 139.525 104.83 140.559 110.03C141.108 112.79 142.252 115.456 144.119 117.849C149.148 124.291 158.288 127.028 166.152 124.813C170.941 123.464 175.143 120.385 178.116 116.421C181.871 111.415 182.16 104.697 180.141 98.6075C177.742 91.3678 172.079 85.0185 165.057 83.5024Z" fill="#DCDCDC"/>
</svg>
