<svg width="24" height="19" viewBox="0 0 24 19" fill="none" xmlns="http://www.w3.org/2000/svg">
<path d="M22.9873 7.96616C22.6625 7.56091 22.2085 7.30565 21.7979 7.27393C21.8177 7.38376 21.8386 7.49338 21.8576 7.60329C21.9274 7.79525 21.995 7.98799 22.0611 8.18116C22.3841 8.55362 22.6466 8.97849 22.8312 9.43572C22.8782 9.55235 22.9234 9.67551 23.0154 9.76136C23.1895 9.92374 23.6063 9.78556 23.7978 9.70307C23.8088 9.69834 23.8192 9.69219 23.83 9.68696C23.661 9.04637 23.372 8.44615 22.9873 7.96616Z" fill="#CDCDCD"/>
<path d="M23.0153 9.76135C22.9233 9.6755 22.8781 9.55236 22.8311 9.43571C22.6465 8.97848 22.384 8.55361 22.061 8.18115C22.2017 8.59214 22.3325 9.00627 22.4417 9.42699C22.5314 9.77259 22.6042 10.1286 22.6568 10.4887C22.8242 11.6329 22.7836 12.8198 22.4026 13.8609C22.8529 13.7406 23.2719 13.3311 23.485 12.9784C24.0537 12.0368 24.1238 10.8006 23.8299 9.68699C23.8191 9.69221 23.8087 9.69837 23.7977 9.7031C23.6062 9.78555 23.1894 9.92373 23.0153 9.76135Z" fill="#CDCDCD"/>
<path d="M0.984558 9.76193C1.07652 9.67607 1.12166 9.55293 1.16876 9.43628C1.36255 8.95607 1.64143 8.51057 1.98713 8.12509C2.06943 7.88651 2.15393 7.64874 2.24125 7.41189C2.24954 7.36498 2.25885 7.31837 2.2673 7.27148C1.84021 7.27944 1.35469 7.53985 1.01262 7.96672C0.627912 8.44673 0.338957 9.04695 0.169922 9.68754C0.180657 9.69277 0.191099 9.69893 0.202128 9.70366C0.393677 9.78612 0.810449 9.92431 0.984558 9.76193Z" fill="#CDCDCD"/>
<path d="M1.58658 9.42697C1.65971 9.14522 1.74372 8.86698 1.83239 8.59026C1.88228 8.43446 1.93386 8.27923 1.98725 8.12451C1.64154 8.51 1.36266 8.9555 1.16887 9.43571C1.12179 9.55234 1.07663 9.6755 0.98467 9.76135C0.810561 9.92373 0.39379 9.78555 0.202221 9.70306C0.191193 9.69833 0.180751 9.69217 0.170016 9.68695C-0.123886 10.8006 -0.0539053 12.0368 0.514937 12.9784C0.73305 13.3393 1.16657 13.7597 1.62879 13.8689C1.12458 12.4985 1.2111 10.8738 1.58658 9.42697Z" fill="#CDCDCD"/>
<path d="M22.4417 9.42719C22.3325 9.00648 22.2016 8.59234 22.061 8.18136C21.9949 7.98819 21.9272 7.79543 21.8575 7.60349C21.8384 7.49358 21.8175 7.38396 21.7977 7.27413C21.4576 5.38863 20.9975 3.52474 20.4174 1.69875C20.2496 1.17077 20.0484 0.612231 19.6028 0.283291C19.1183 -0.0744269 18.4346 -0.070266 17.8812 0.166807C17.3276 0.404009 16.8844 0.841129 16.5 1.30496C16.0218 1.88211 15.6169 2.50926 15.2586 3.16576C13.1072 2.84758 10.8876 2.7517 8.72401 3.01661C8.38631 2.41433 8.00711 1.83823 7.56522 1.30496C7.18086 0.841129 6.73769 0.404027 6.18416 0.166807C5.63064 -0.070266 4.94695 -0.0744086 4.46247 0.283291C4.01694 0.612213 3.81562 1.17077 3.64789 1.69875C3.06804 3.52381 2.60717 5.38654 2.26705 7.27112C2.2586 7.31802 2.2493 7.36464 2.241 7.41152C2.15369 7.64838 2.06918 7.88615 1.98689 8.12472C1.9335 8.27944 1.88192 8.43467 1.83203 8.59047C1.83782 8.59727 1.8437 8.60422 1.84949 8.61102C2.45246 9.31885 3.12492 9.96454 3.85091 10.5435C3.88683 10.3409 3.93226 10.1407 3.98609 9.94528C4.04112 9.7453 4.10802 9.55477 4.18238 9.37026C4.79902 7.84148 6.06265 6.83651 7.73717 6.21122C10.4908 5.18312 13.5596 5.1915 16.2908 6.21122C16.4418 6.26764 16.5882 6.32829 16.7326 6.39101C18.3799 7.10687 19.5713 8.23706 20.0419 9.94528C20.1571 10.3634 20.2348 10.8033 20.2593 11.2426C20.3451 11.4833 20.4045 11.7315 20.4305 11.9813C21.2145 11.5498 21.9608 11.0504 22.6568 10.4889C22.6041 10.1288 22.5313 9.7728 22.4417 9.42719Z" fill="#CDCDCD"/>
<path d="M5.73759 17.1254C5.7579 17.1319 5.77824 17.1385 5.79855 17.1449C9.84239 18.4257 14.1858 18.4257 18.2296 17.1449C18.2499 17.1385 18.2703 17.132 18.2906 17.1254C18.3686 17.1006 18.4466 17.075 18.5247 17.049C19.6543 16.6723 20.7766 16.1711 21.5638 15.2843C21.9389 14.8617 22.2127 14.3791 22.4026 13.8605C22.7836 12.8194 22.8242 11.6325 22.6569 10.4882C21.9609 11.0498 21.2146 11.5492 20.4306 11.9807C20.4747 12.4008 20.4281 12.8244 20.2671 13.2198C19.4686 15.1802 17.2001 15.6904 15.338 16.0575C12.7833 16.561 9.9375 16.4256 7.4159 15.819C5.56991 15.375 3.82462 14.2972 3.82004 12.2751C3.72615 11.7121 3.7492 11.1177 3.85102 10.5429C3.12503 9.96391 2.45257 9.31822 1.8496 8.61039C1.84381 8.60359 1.83793 8.59664 1.83214 8.58984C1.74347 8.86658 1.65946 9.1448 1.58633 9.42655C1.21085 10.8734 1.12433 12.4981 1.62856 13.8685C1.81833 14.384 2.09113 14.8638 2.46431 15.2843C3.25149 16.1711 4.37371 16.6723 5.50343 17.049C5.58152 17.075 5.6596 17.1006 5.73759 17.1254Z" fill="#CDCDCD"/>
<path d="M19.4005 13.9754C18.786 14.6276 17.8918 14.9768 17.0101 15.2422C16.9953 15.2467 16.9804 15.2511 16.9656 15.2555C13.8666 16.1803 10.1432 16.1762 7.06217 15.2555C7.04735 15.2511 7.0324 15.2467 7.01766 15.2422C6.13603 14.9768 5.24174 14.6276 4.62717 13.9754C4.17568 13.4962 3.9248 12.9055 3.81982 12.2754C3.8244 14.2975 5.56969 15.3752 7.41569 15.8192C9.93729 16.4258 12.7831 16.5612 15.3378 16.0577C17.1999 15.6907 19.4684 15.1805 20.2669 13.2201C20.4279 12.8246 20.4745 12.401 20.4304 11.981C20.4044 11.7311 20.345 11.4829 20.2592 11.2422C20.3148 12.2423 20.0933 13.24 19.4005 13.9754Z" fill="#CDCDCD"/>
<path d="M16.7451 3.87933C17.1714 4.12943 17.6444 4.30312 18.0832 4.54298C18.451 4.74397 18.8168 4.94559 19.1773 5.1586C19.4814 5.33817 20.179 5.89192 20.179 5.89192C20.179 5.89192 19.5474 4.94953 19.1622 4.52266C18.8831 4.21342 18.5753 3.93883 18.2291 3.74021C17.3999 3.26458 15.3423 3.18604 15.3423 3.18604C15.3423 3.18604 15.8533 3.40828 16.0122 3.48596C16.2613 3.60776 16.5059 3.739 16.7451 3.87933Z" fill="#CDCDCD"/>
<path d="M5.89799 4.42775C6.3368 4.18789 6.80981 4.01418 7.23611 3.76417C7.47534 3.62384 7.71986 3.4926 7.96904 3.37073C8.12798 3.29312 8.63892 3.0708 8.63892 3.0708C8.63892 3.0708 6.58126 3.14934 5.75207 3.62505C5.40587 3.82359 5.09808 4.09824 4.81898 4.40749C4.43378 4.8343 3.80225 5.77676 3.80225 5.77676C3.80225 5.77676 4.49975 5.22293 4.80382 5.04336C5.16442 4.83043 5.53023 4.62873 5.89799 4.42775Z" fill="#CDCDCD"/>
<path d="M18.7758 8.02556C18.1949 7.36999 17.4783 6.85849 16.7336 6.39109C16.5892 6.32837 16.4428 6.26773 16.2918 6.2113C13.5606 5.19157 10.4918 5.1832 7.73816 6.2113C6.06364 6.83657 4.80001 7.84154 4.18337 9.37034C4.11675 9.81054 4.08769 10.2546 4.11096 10.7003C4.17293 11.8901 4.65045 13.1003 5.58633 13.837C6.40563 14.4818 7.47354 14.7028 8.505 14.8534C11.022 15.221 13.6287 15.2782 16.072 14.5709C16.9289 14.3228 17.7709 13.9754 18.47 13.4211C19.169 12.8667 19.7172 12.0865 19.8634 11.206C20.0529 10.0631 19.5439 8.89249 18.7758 8.02556Z" fill="#CDCDCD"/>
<path d="M7.01787 15.2426C7.03261 15.2472 7.04756 15.2516 7.06238 15.256C10.1434 16.1767 13.8668 16.1808 16.9658 15.256C16.9806 15.2516 16.9955 15.2472 17.0103 15.2426C17.892 14.9772 18.7862 14.6281 19.4007 13.9758C20.0936 13.2405 20.315 12.2428 20.2594 11.2427C20.2349 10.8033 20.1572 10.3635 20.042 9.94538C19.5714 8.23716 18.38 7.10697 16.7327 6.39111C17.4773 6.85851 18.194 7.37002 18.7749 8.02559C19.543 8.89252 20.0521 10.0631 19.8625 11.206C19.7164 12.0865 19.1681 12.8667 18.4691 13.4211C17.77 13.9754 16.928 14.3228 16.0711 14.5709C13.6278 15.2783 11.0211 15.2211 8.50412 14.8535C7.47263 14.7028 6.40473 14.4819 5.58544 13.8371C4.64956 13.1004 4.17205 11.8901 4.11007 10.7003C4.08682 10.2547 4.11586 9.81058 4.18249 9.37038C4.10813 9.55491 4.04123 9.74542 3.98619 9.9454C3.93237 10.1408 3.88694 10.341 3.85101 10.5436C3.74918 11.1184 3.72615 11.7128 3.82003 12.2759C3.92502 12.906 4.17591 13.4967 4.62738 13.9759C5.24195 14.6281 6.13624 14.9772 7.01787 15.2426Z" fill="#CDCDCD"/>
<path d="M17.7103 8.07004C17.2127 7.51757 16.5534 7.14319 15.8568 6.90097C14.4604 6.41546 12.9185 6.40329 11.4609 6.52514C10.728 6.58644 10.0001 6.70536 9.28447 6.87426C7.32112 7.3375 5.00899 8.3946 4.61504 10.6102C4.46935 11.4297 4.824 12.403 5.60982 12.6762C6.06975 12.8361 6.57453 12.7328 7.05005 12.6281C7.1448 12.6072 7.23955 12.5864 7.33422 12.5656C6.89268 12.4565 6.48579 12.2126 6.20584 11.854C5.66406 11.1599 5.71601 10.2383 6.11846 9.5155C6.5484 8.74308 7.3785 8.19765 8.31187 8.39913C9.61241 8.67986 10.4521 10.6082 9.62551 11.7104C9.50006 11.8776 9.3518 12.0278 9.18763 12.1575C10.6997 11.8246 12.2117 11.4917 13.7237 11.1588C13.8619 11.1284 14.0001 11.0979 14.1383 11.0675C14.0342 10.5445 14.1462 9.9877 14.409 9.5155C14.839 8.74308 15.669 8.19765 16.6025 8.39913C17.3089 8.55163 17.8785 9.1903 18.1198 9.91853C18.8501 9.21807 18.1973 8.61076 17.7103 8.07004Z" fill="#CDCDCD"/>
<path d="M9.6252 11.7108C10.4518 10.6086 9.6121 8.68029 8.31155 8.39956C7.37819 8.19808 6.54807 8.74353 6.11815 9.51593C5.71569 10.2387 5.66373 11.1604 6.20553 11.8544C6.48548 12.2131 6.89237 12.4569 7.33391 12.566C7.69006 12.6539 8.06864 12.6543 8.42171 12.5549C8.70145 12.4761 8.96014 12.3373 9.18734 12.1579C9.35147 12.0283 9.49975 11.8781 9.6252 11.7108Z" fill="#121212"/>
<path d="M16.6028 8.39956C15.6694 8.19808 14.8394 8.74353 14.4094 9.51593C14.1465 9.98813 14.0346 10.5449 14.1387 11.0679C14.1939 11.3455 14.3089 11.6137 14.4968 11.8544C15.0026 12.5024 15.922 12.7777 16.713 12.5549C17.1947 12.4192 17.6174 12.1095 17.9164 11.7108C18.2941 11.2072 18.3233 10.5315 18.1202 9.91896C17.8788 9.19073 17.3092 8.55206 16.6028 8.39956Z" fill="#121212"/>
</svg>
