<svg width="25" height="25" viewBox="0 0 25 25" fill="none" xmlns="http://www.w3.org/2000/svg">
<g clip-path="url(#clip0_78_1568)">
<path d="M11.1812 5.94556C11.2351 5.94483 11.2351 5.94483 11.2902 5.9441C12.5817 5.93039 13.7635 6.01836 14.795 6.88492C14.8264 6.91079 14.8577 6.93666 14.89 6.96332C15.462 7.48277 15.7807 8.29971 15.832 9.05892C15.8548 10.2401 15.3406 11.1695 14.6472 12.0984C13.7942 13.2419 13.1126 14.4398 13.3063 15.9128C13.4805 16.752 13.8343 17.5622 14.1471 18.3584C14.6778 19.7101 15.2674 21.2804 14.6649 22.7121C14.4758 23.1282 14.2437 23.4578 13.9161 23.7795C13.8898 23.8092 13.8635 23.8389 13.8364 23.8695C13.234 24.5355 12.2408 24.9349 11.3616 25.0149C11.1986 25.0214 11.0366 25.023 10.8735 25.0215C10.816 25.0212 10.7586 25.0209 10.6993 25.0205C10.2461 25.0122 9.85169 24.9564 9.42391 24.8048C9.37224 24.7872 9.32056 24.7695 9.26732 24.7513C7.97093 24.2603 7.10106 23.1044 6.54162 21.884C5.12832 18.7083 3.68025 13.3882 4.89291 10.0115C5.58767 8.23534 7.13203 7.18655 8.82176 6.44032C9.5661 6.12699 10.373 5.95449 11.1812 5.94556Z" fill="#CDCDCD"/>
<path d="M18.5826 1.52465C18.6217 1.55329 18.6609 1.58193 18.7012 1.61144C18.7333 1.63454 18.7654 1.65764 18.7985 1.68144C19.2811 2.06 19.614 2.68447 19.7129 3.28533C19.8028 4.15469 19.62 4.91632 19.0644 5.60314C18.5499 6.1424 17.8927 6.44214 17.1516 6.46819C16.446 6.47679 15.9068 6.32876 15.3321 5.90831C15.2839 5.87366 15.2839 5.87366 15.2348 5.83831C14.7522 5.45975 14.4193 4.83528 14.3204 4.23442C14.2305 3.36506 14.4132 2.60343 14.9689 1.91661C15.9132 0.926712 17.4531 0.750417 18.5826 1.52465Z" fill="#CDCDCD"/>
<path d="M3.53171 5.73391C4.04473 6.10158 4.41862 6.57986 4.56969 7.19723C4.66442 7.7933 4.57853 8.37518 4.25116 8.88695C3.90143 9.36576 3.418 9.73499 2.83209 9.86352C2.12817 9.92508 1.56136 9.83674 0.976626 9.42406C0.935335 9.39687 0.894045 9.36968 0.851504 9.34166C0.43966 8.95094 0.178505 8.42297 0.134913 7.85698C0.119968 7.17109 0.2942 6.62493 0.756899 6.11596C0.797182 6.0797 0.837465 6.04345 0.878969 6.00609C0.921267 5.96581 0.963564 5.92553 1.00714 5.88402C1.67773 5.33218 2.80119 5.28653 3.53171 5.73391Z" fill="#CDCDCD"/>
<path d="M7.43796 1.82766C7.95098 2.19533 8.32487 2.67361 8.47594 3.29098C8.57067 3.88705 8.48478 4.46893 8.15741 4.9807C7.80768 5.45951 7.32425 5.82874 6.73834 5.95727C6.03442 6.01883 5.46761 5.93049 4.88288 5.51781C4.84159 5.49062 4.8003 5.46343 4.75775 5.43541C4.34591 5.04469 4.08476 4.51672 4.04116 3.95073C4.02622 3.26484 4.20045 2.71868 4.66315 2.20971C4.70343 2.17345 4.74372 2.1372 4.78522 2.09984C4.82752 2.05956 4.86981 2.01928 4.91339 1.97777C5.58398 1.42593 6.70744 1.38028 7.43796 1.82766Z" fill="#CDCDCD"/>
<path d="M12.5649 0.265165C13.0779 0.63283 13.4518 1.11111 13.6029 1.72848C13.6976 2.32455 13.6117 2.90643 13.2844 3.4182C12.9346 3.89701 12.4512 4.26624 11.8653 4.39477C11.1614 4.45633 10.5946 4.36799 10.0098 3.95531C9.96854 3.92812 9.92725 3.90093 9.88471 3.87291C9.47286 3.48219 9.21171 2.95422 9.16812 2.38823C9.15317 1.70234 9.3274 1.15618 9.7901 0.647207C9.83039 0.610952 9.87067 0.574697 9.91217 0.537343C9.95447 0.49706 9.99677 0.456777 10.0403 0.415273C10.7109 -0.136568 11.8344 -0.182215 12.5649 0.265165Z" fill="#CDCDCD"/>
<path d="M22.4061 13.3761C22.8938 13.7235 23.2257 14.1819 23.3685 14.7656C23.4632 15.3616 23.3774 15.9435 23.05 16.4553C22.7003 16.9341 22.2168 17.3033 21.6309 17.4319C20.9004 17.4957 20.3162 17.4016 19.7266 16.9436C19.2729 16.5426 18.9806 16.0341 18.9337 15.4253C18.9188 14.7388 19.095 14.2018 19.5496 13.6873C20.3763 12.959 21.4413 12.766 22.4061 13.3761ZM20.4102 14.3069C20.1426 14.5705 19.9692 14.8412 19.9463 15.2254C19.9584 15.5573 20.0861 15.8265 20.3095 16.0702C20.5814 16.3189 20.8199 16.4305 21.1915 16.4553C21.6077 16.4095 21.8904 16.2349 22.1522 15.9105C22.3591 15.6225 22.417 15.3363 22.3633 14.9904C22.2323 14.5839 21.9784 14.2944 21.6034 14.0932C21.1548 13.9782 20.7772 14.0051 20.4102 14.3069Z" fill="#CDCDCD"/>
<path d="M17.92 13.2323C17.954 13.2469 17.988 13.2616 18.023 13.2767C18.1904 13.3566 18.2641 13.4313 18.3625 13.5893C18.4175 13.8056 18.3989 13.9078 18.3106 14.1112C18.2374 14.2302 18.2374 14.2302 18.1153 14.3065C17.8676 14.3491 17.6585 14.3382 17.4409 14.2088C17.1521 14.0449 16.8012 14.0585 16.486 14.1417C16.1752 14.2772 15.9487 14.5382 15.799 14.8375C15.7281 15.2317 15.7398 15.5763 15.9669 15.9178C16.1925 16.1647 16.4143 16.3371 16.754 16.3737C17.1538 16.3784 17.3506 16.3359 17.6423 16.0521C17.8054 15.9459 17.9159 15.936 18.1077 15.944C18.277 15.9805 18.355 16.0769 18.4571 16.2108C18.5367 16.37 18.5287 16.4734 18.5059 16.6503C18.2405 17.0662 17.8533 17.3127 17.3829 17.4315C17.2296 17.4514 17.0796 17.4548 16.9251 17.4529C16.8846 17.4525 16.8441 17.4522 16.8024 17.4518C16.3098 17.439 15.9267 17.2738 15.5274 16.992C15.4861 16.9649 15.4448 16.9377 15.4023 16.9097C14.9904 16.5189 14.7293 15.991 14.6857 15.425C14.6707 14.7391 14.845 14.1929 15.3077 13.6839C15.348 13.6477 15.3882 13.6114 15.4298 13.5741C15.472 13.5338 15.5143 13.4935 15.5579 13.452C16.1919 12.9303 17.2012 12.8691 17.92 13.2323Z" fill="#CDCDCD"/>
<path d="M24.0967 17.5294C24.4051 17.7079 24.5959 17.975 24.7071 18.3106C24.8002 18.9556 24.5533 19.4292 24.1841 19.9339C24.1001 20.0456 24.0136 20.1551 23.9258 20.2637C23.9688 20.2685 24.0118 20.2733 24.0561 20.2782C24.1128 20.2855 24.1695 20.2928 24.2279 20.3004C24.284 20.3072 24.3401 20.314 24.3979 20.321C24.5795 20.3661 24.6706 20.4282 24.8047 20.5567C24.8806 20.7085 24.8675 20.8283 24.8536 20.9962C24.7033 21.2666 24.7033 21.2666 24.5606 21.338C24.421 21.3446 24.2827 21.3483 24.1431 21.3496C24.1015 21.35 24.06 21.3504 24.0172 21.3508C23.9291 21.3515 23.8411 21.352 23.753 21.3524C23.6186 21.3532 23.4843 21.3554 23.3499 21.3575C23.2644 21.358 23.1788 21.3584 23.0933 21.3588C23.0532 21.3596 23.0131 21.3605 22.9718 21.3613C22.7755 21.3606 22.6798 21.3529 22.51 21.2451C22.3621 21.0902 22.3282 20.9583 22.3317 20.7419C22.3963 20.4635 22.6015 20.244 22.7743 20.0223C22.9169 19.8372 23.0533 19.6474 23.1903 19.4581C23.2175 19.4213 23.2446 19.3845 23.2725 19.3466C23.5629 18.9651 23.5629 18.9651 23.6328 18.5059C23.5362 18.5059 23.4395 18.5059 23.3399 18.5059C23.3292 18.5324 23.3185 18.5589 23.3075 18.5862C23.2268 18.7681 23.1704 18.8776 23.0072 18.9973C22.8143 19.054 22.703 19.0504 22.5098 18.9942C22.3578 18.8939 22.2811 18.8219 22.2422 18.6408C22.2237 18.3188 22.3097 18.0739 22.5098 17.8223C22.9477 17.41 23.5316 17.2747 24.0967 17.5294Z" fill="#CDCDCD"/>
</g>
<defs>
<clipPath id="clip0_78_1568">
<rect width="25" height="25" fill="white"/>
</clipPath>
</defs>
</svg>
