<svg width="28" height="28" viewBox="0 0 28 28" fill="none" xmlns="http://www.w3.org/2000/svg">
<g clip-path="url(#clip0_78_1596)">
<path d="M15.8046 6.78125C15.8483 6.79331 15.892 6.80536 15.937 6.81778C17.0409 7.13218 17.9795 7.6443 18.8671 8.36719C18.9127 8.40392 18.9582 8.44065 19.0051 8.47849C19.2597 8.69256 19.4796 8.92815 19.6875 9.1875C19.7094 9.21483 19.7313 9.24215 19.7539 9.27031C20.4524 10.152 20.9197 11.1122 21.2187 12.1953C21.2345 12.2512 21.2345 12.2512 21.2505 12.3082C21.5533 13.4419 21.4838 14.8486 21.164 15.9688C21.1529 16.0097 21.1417 16.0506 21.1303 16.0927C20.796 17.2948 20.1515 18.334 19.291 19.2295C18.4859 20.0731 18.223 21.115 18.1455 22.2503C18.1239 22.5295 18.0662 22.7001 17.8828 22.9141C17.684 23.0563 17.5478 23.0987 17.3046 23.0993C17.2136 23.1001 17.2136 23.1001 17.1208 23.101C17.0548 23.1007 16.9888 23.1005 16.9208 23.1002C16.816 23.1008 16.816 23.1008 16.709 23.1014C16.5175 23.1023 16.3261 23.1023 16.1347 23.102C15.9748 23.1018 15.8148 23.1021 15.6549 23.1025C15.2774 23.1032 14.9 23.1031 14.5225 23.1025C14.1335 23.1019 13.7445 23.1027 13.3555 23.1041C13.0211 23.1053 12.6868 23.1057 12.3524 23.1054C12.1529 23.1052 11.9533 23.1053 11.7538 23.1063C11.5312 23.1073 11.3087 23.1065 11.0862 23.1056C11.0203 23.1061 10.9544 23.1066 10.8865 23.1072C10.5417 23.1041 10.322 23.0963 10.0625 22.8594C9.91282 22.6641 9.87491 22.508 9.8561 22.2651C9.85065 22.2035 9.84521 22.1419 9.8396 22.0785C9.83419 22.0136 9.82878 21.9487 9.8232 21.8818C9.70606 20.6908 9.32086 19.8637 8.49839 19.0031C7.64136 18.0935 7.07995 16.954 6.78121 15.75C6.76366 15.682 6.7461 15.6141 6.72802 15.5441C6.31532 13.6476 6.68764 11.5912 7.72182 9.95895C8.55082 8.69287 9.67875 7.78966 11.0468 7.16406C11.1013 7.13826 11.1558 7.11246 11.212 7.08588C12.5577 6.5058 14.3888 6.38199 15.8046 6.78125ZM11.2109 10.9922C11.1608 11.0347 11.1608 11.0347 11.1096 11.0781C10.5921 11.5484 10.138 12.3146 10.0405 13.0079C10.0308 13.2688 10.0443 13.472 10.2265 13.6719C10.5124 13.8793 10.6958 13.9296 11.0468 13.8906C11.2738 13.8121 11.4137 13.7186 11.5397 13.5112C11.6117 13.361 11.6665 13.2063 11.7236 13.0498C11.9367 12.4833 12.2251 12.179 12.7421 11.8672C12.7778 11.8452 12.8135 11.8232 12.8502 11.8005C13.1778 11.6283 13.5368 11.5926 13.9001 11.5508C14.2386 11.5074 14.4715 11.413 14.7041 11.1494C14.7965 10.9132 14.8017 10.6954 14.7656 10.4453C14.6438 10.1973 14.5205 10.0718 14.2734 9.95313C14.1241 9.93554 13.9916 9.92706 13.8427 9.9292C13.8019 9.92965 13.761 9.93011 13.7189 9.93058C12.772 9.95871 11.9096 10.3641 11.2109 10.9922Z" fill="#CDCDCD"/>
<path d="M10.7186 24.7188C12.8843 24.7188 15.0499 24.7188 17.2811 24.7188C17.2811 26.5422 17.2811 26.5422 16.6249 27.2891C16.3503 27.5473 16.0443 27.7481 15.6952 27.8906C15.6294 27.9185 15.6294 27.9185 15.5623 27.947C15.2928 28.0202 15.0361 28.0178 14.758 28.0184C14.6992 28.0187 14.6404 28.0191 14.5798 28.0195C14.4556 28.02 14.3314 28.0203 14.2071 28.0203C14.0186 28.0205 13.8301 28.0225 13.6415 28.0246C13.5204 28.0249 13.3992 28.0251 13.2781 28.0252C13.1945 28.0264 13.1945 28.0264 13.1093 28.0276C12.446 28.0234 11.9243 27.7785 11.4296 27.3438C10.6786 26.5454 10.7186 25.8615 10.7186 24.7188Z" fill="#CDCDCD"/>
<path d="M23.5156 3.88277C23.7736 3.97528 23.9096 4.09389 24.0624 4.32027C24.1487 4.57912 24.1844 4.83931 24.0605 5.09198C23.8352 5.42431 23.5764 5.70519 23.2919 5.9876C23.2447 6.03494 23.1975 6.08228 23.1489 6.13105C23.0497 6.23038 22.9503 6.3295 22.8507 6.42842C22.6987 6.57948 22.5477 6.7314 22.3967 6.88343C22.2998 6.98022 22.2029 7.07695 22.1059 7.17363C22.061 7.21881 22.0162 7.26399 21.97 7.31053C21.4452 7.82893 21.4452 7.82893 21.0852 7.90209C20.818 7.89471 20.6263 7.86459 20.3984 7.7109C20.1698 7.46381 20.0959 7.25313 20.1041 6.92145C20.1725 6.46079 20.6362 6.08179 20.9502 5.77013C20.9973 5.72279 21.0445 5.67545 21.0931 5.62668C21.1923 5.52735 21.2918 5.42823 21.3914 5.32931C21.5433 5.17825 21.6944 5.02633 21.8453 4.8743C21.9422 4.77751 22.0392 4.68078 22.1362 4.5841C22.181 4.53892 22.2259 4.49374 22.2721 4.4472C22.6466 4.07717 22.9649 3.80037 23.5156 3.88277Z" fill="#CDCDCD"/>
<path d="M5.09205 3.93952C5.42438 4.16476 5.70526 4.4236 5.98767 4.70811C6.03501 4.75529 6.08235 4.80247 6.13112 4.85108C6.23045 4.9503 6.32957 5.04972 6.4285 5.14933C6.57956 5.30128 6.73148 5.45232 6.8835 5.6033C6.98029 5.70019 7.07702 5.79714 7.17371 5.89414C7.21888 5.93899 7.26406 5.98383 7.3106 6.03003C7.829 6.55478 7.829 6.55478 7.90216 6.91483C7.89478 7.18197 7.86466 7.37375 7.71097 7.60163C7.46389 7.83018 7.2532 7.90406 6.92153 7.89588C6.46087 7.82753 6.08186 7.36382 5.7702 7.04984C5.72286 7.00266 5.67553 6.95548 5.62675 6.90687C5.52743 6.80765 5.4283 6.70823 5.32938 6.60862C5.17832 6.45668 5.0264 6.30563 4.87437 6.15466C4.77759 6.05776 4.68085 5.96081 4.58417 5.86381C4.53899 5.81897 4.49382 5.77412 4.44727 5.72792C3.92888 5.20317 3.92888 5.20317 3.85571 4.84312C3.86309 4.57598 3.89321 4.38421 4.04691 4.15632C4.33712 3.88787 4.71625 3.75517 5.09205 3.93952Z" fill="#CDCDCD"/>
<path d="M23.9079 13.1578C23.9464 13.1574 23.9848 13.1571 24.0244 13.1567C24.151 13.1557 24.2775 13.1559 24.4041 13.1562C24.4924 13.1559 24.5807 13.1556 24.6691 13.1553C24.854 13.1548 25.0389 13.155 25.2239 13.1555C25.4604 13.1561 25.6969 13.155 25.9335 13.1534C26.1158 13.1524 26.2982 13.1524 26.4806 13.1528C26.5678 13.1528 26.655 13.1524 26.7421 13.1518C26.8643 13.1509 26.9863 13.1515 27.1084 13.1525C27.2125 13.1525 27.2125 13.1525 27.3186 13.1525C27.5939 13.1924 27.7676 13.3106 27.937 13.5287C28.0512 13.7885 28.0339 14.0507 28 14.3283C27.8808 14.58 27.7553 14.6993 27.5078 14.8205C27.3256 14.8417 27.3256 14.8417 27.1155 14.8426C27.0771 14.843 27.0386 14.8434 26.999 14.8438C26.8724 14.8448 26.7459 14.8445 26.6194 14.8442C26.531 14.8445 26.4427 14.8448 26.3544 14.8451C26.1694 14.8456 25.9845 14.8455 25.7996 14.8449C25.563 14.8443 25.3265 14.8454 25.09 14.847C24.9076 14.848 24.7252 14.848 24.5429 14.8477C24.4557 14.8477 24.3685 14.848 24.2813 14.8487C24.1592 14.8495 24.0371 14.8489 23.915 14.848C23.8456 14.848 23.7763 14.8479 23.7048 14.8479C23.4295 14.808 23.2559 14.6898 23.0865 14.4717C22.9723 14.2119 22.9896 13.9498 23.0234 13.6721C23.2152 13.2672 23.4744 13.1596 23.9079 13.1578Z" fill="#CDCDCD"/>
<path d="M0.884494 13.1578C0.922945 13.1574 0.961396 13.1571 1.00101 13.1567C1.12757 13.1557 1.25409 13.1559 1.38065 13.1562C1.46898 13.1559 1.5573 13.1556 1.64563 13.1553C1.83057 13.1548 2.0155 13.155 2.20044 13.1555C2.43699 13.1561 2.6735 13.155 2.91004 13.1534C3.09241 13.1524 3.27477 13.1524 3.45713 13.1528C3.54432 13.1528 3.63152 13.1524 3.7187 13.1518C3.84083 13.1509 3.96287 13.1515 4.08499 13.1525C4.18905 13.1525 4.18905 13.1525 4.2952 13.1525C4.57048 13.1924 4.74411 13.3106 4.91354 13.5287C5.02773 13.7885 5.01043 14.0507 4.97656 14.3283C4.85736 14.58 4.73185 14.6993 4.48438 14.8205C4.30214 14.8417 4.30214 14.8417 4.09207 14.8426C4.05362 14.843 4.01517 14.8434 3.97555 14.8438C3.849 14.8448 3.72248 14.8445 3.59592 14.8442C3.50759 14.8445 3.41926 14.8448 3.33093 14.8451C3.14599 14.8456 2.96107 14.8455 2.77613 14.8449C2.53957 14.8443 2.30307 14.8454 2.06652 14.847C1.88415 14.848 1.7018 14.848 1.51943 14.8477C1.43224 14.8477 1.34505 14.848 1.25786 14.8487C1.13574 14.8495 1.01369 14.8489 0.89157 14.848C0.822203 14.848 0.752835 14.8479 0.681366 14.8479C0.406082 14.808 0.232451 14.6898 0.0630198 14.4717C-0.0511694 14.2119 -0.0338621 13.9498 9.6485e-07 13.6721C0.191809 13.2672 0.451001 13.1596 0.884494 13.1578Z" fill="#CDCDCD"/>
<path d="M14.3281 9.6485e-07C14.5797 0.119206 14.6991 0.244709 14.8203 0.492188C14.8415 0.674421 14.8415 0.674421 14.8424 0.884494C14.8428 0.922945 14.8431 0.961396 14.8435 1.00101C14.8445 1.12757 14.8443 1.25409 14.844 1.38065C14.8442 1.46898 14.8445 1.5573 14.8449 1.64563C14.8453 1.83057 14.8452 2.0155 14.8447 2.20044C14.844 2.43699 14.8451 2.6735 14.8467 2.91004C14.8478 3.09241 14.8477 3.27477 14.8474 3.45713C14.8474 3.54432 14.8477 3.63152 14.8484 3.7187C14.8492 3.84083 14.8487 3.96287 14.8477 4.08499C14.8477 4.15436 14.8477 4.22373 14.8477 4.2952C14.8078 4.57048 14.6896 4.74411 14.4714 4.91354C14.2117 5.02773 13.9495 5.01043 13.6718 4.97656C13.4202 4.85736 13.3008 4.73185 13.1797 4.48438C13.1585 4.30214 13.1585 4.30214 13.1576 4.09207C13.1572 4.05362 13.1568 4.01517 13.1564 3.97555C13.1554 3.849 13.1556 3.72248 13.1559 3.59592C13.1557 3.50759 13.1554 3.41926 13.1551 3.33093C13.1546 3.14599 13.1547 2.96107 13.1553 2.77613C13.1559 2.53957 13.1548 2.30307 13.1532 2.06652C13.1522 1.88415 13.1522 1.7018 13.1525 1.51943C13.1525 1.43224 13.1522 1.34505 13.1515 1.25786C13.1507 1.13574 13.1513 1.01369 13.1522 0.89157C13.1522 0.822203 13.1522 0.752835 13.1522 0.681366C13.1921 0.406082 13.3104 0.232451 13.5285 0.0630198C13.7882 -0.0511694 14.0504 -0.0338621 14.3281 9.6485e-07Z" fill="#CDCDCD"/>
</g>
<defs>
<clipPath id="clip0_78_1596">
<rect width="28" height="28" fill="white"/>
</clipPath>
</defs>
</svg>
