<svg width="20" height="20" viewBox="0 0 20 20" fill="none" xmlns="http://www.w3.org/2000/svg">
<path d="M10.3981 2.82247C10.8084 3.07897 11.0863 3.67692 11.3446 4.07262C11.4688 4.26295 11.5936 4.45291 11.7185 4.64284C11.7442 4.68195 11.7699 4.72106 11.7964 4.76136C12.1171 5.24861 12.4438 5.73181 12.7708 6.21489C12.7928 6.24731 12.8147 6.27972 12.8373 6.31312C12.8806 6.37714 12.924 6.44112 12.9675 6.50507C13.0835 6.67616 13.1979 6.84812 13.3106 7.0214C13.3349 7.05858 13.3593 7.09577 13.3843 7.13408C13.4309 7.20533 13.4771 7.27678 13.523 7.34845C13.6949 7.61082 13.8591 7.81883 14.1799 7.89083C14.5598 7.92601 14.8105 7.75654 15.0905 7.52706C15.1527 7.47738 15.215 7.4278 15.2773 7.37829C15.309 7.35302 15.3407 7.32774 15.3734 7.30171C15.5239 7.18364 15.6781 7.07089 15.8327 6.95821C16.0979 6.76429 16.3604 6.56713 16.6213 6.36739C16.914 6.14335 17.2088 5.9224 17.5063 5.70466C17.6558 5.59516 17.8046 5.48491 17.952 5.37252C17.9946 5.34014 17.9946 5.34014 18.038 5.3071C18.0912 5.26657 18.1442 5.22586 18.197 5.18495C18.3971 5.03261 18.5625 4.9407 18.8236 4.94909C19.0367 4.98009 19.1783 5.06971 19.3166 5.23214C19.5043 5.62496 19.3407 6.1933 19.2754 6.60705C19.2647 6.67697 19.2539 6.7469 19.2433 6.81683C19.2144 7.00523 19.185 7.19355 19.1556 7.38186C19.1248 7.57935 19.0944 7.7769 19.064 7.97445C19.0129 8.30566 18.9616 8.63683 18.91 8.96797C18.8438 9.39321 18.7781 9.81852 18.7125 10.2439C18.656 10.6098 18.5994 10.9758 18.5427 11.3417C18.5245 11.4593 18.5063 11.5769 18.4881 11.6945C18.4596 11.8789 18.431 12.0633 18.4022 12.2476C18.3917 12.3153 18.3812 12.3831 18.3707 12.4508C18.3565 12.543 18.3421 12.6352 18.3276 12.7274C18.3235 12.7544 18.3194 12.7814 18.3151 12.8092C18.2978 12.919 18.2776 13.0195 18.2424 13.1252C12.8025 13.1252 7.36268 13.1252 1.75799 13.1252C1.62614 12.422 1.62614 12.422 1.58815 12.1778C1.58391 12.1507 1.57966 12.1236 1.57528 12.0956C1.56152 12.0075 1.54789 11.9194 1.53427 11.8313C1.52425 11.767 1.51423 11.7027 1.5042 11.6384C1.47731 11.4658 1.45055 11.2931 1.42384 11.1205C1.40709 11.0123 1.39033 10.9041 1.37356 10.7959C1.32094 10.4562 1.26842 10.1166 1.21601 9.77692C1.15581 9.38671 1.09528 8.99655 1.03448 8.60643C0.987266 8.30334 0.940349 8.00021 0.89365 7.69704C0.865849 7.5166 0.837925 7.33618 0.809687 7.15581C0.783154 6.98628 0.756991 6.81669 0.7311 6.64706C0.721596 6.58521 0.711964 6.52337 0.702187 6.46156C0.546274 5.47431 0.546274 5.47431 0.742367 5.19552C0.91821 5.01418 1.06794 4.95836 1.3193 4.94832C1.59173 4.9884 1.80903 5.20024 2.01922 5.36397C2.09299 5.42084 2.16679 5.47765 2.24063 5.53441C2.29617 5.57714 2.29617 5.57714 2.35284 5.62072C2.51112 5.74148 2.67149 5.85928 2.83221 5.97677C3.09492 6.16915 3.35488 6.3648 3.61346 6.5627C3.96644 6.83269 4.32223 7.0985 4.68131 7.36032C4.76291 7.41996 4.84418 7.48004 4.92541 7.54018C4.97392 7.57571 5.02244 7.61121 5.07098 7.64669C5.11232 7.6771 5.15366 7.70752 5.19625 7.73885C5.39948 7.86777 5.58083 7.9152 5.82049 7.89083C6.22876 7.77163 6.4158 7.45965 6.63729 7.11751C6.65903 7.08431 6.68077 7.0511 6.70317 7.01689C6.75003 6.94529 6.79681 6.87363 6.84352 6.80193C6.96939 6.60877 7.09592 6.41606 7.22247 6.22335C7.26159 6.16374 7.26159 6.16374 7.30151 6.10293C7.57674 5.68423 7.85663 5.26872 8.13739 4.85372C8.17305 4.801 8.17305 4.801 8.20944 4.74721C8.24466 4.69514 8.24466 4.69514 8.28059 4.64202C8.32665 4.57394 8.3727 4.50585 8.41876 4.43777C8.44078 4.40521 8.46281 4.37266 8.48551 4.33911C8.61659 4.14523 8.74701 3.95094 8.87652 3.756C8.89148 3.73349 8.90644 3.71097 8.92186 3.68778C8.98766 3.58866 9.05332 3.48946 9.1188 3.39014C9.43228 2.91668 9.78755 2.5836 10.3981 2.82247Z" fill="#CDCDCD"/>
<path d="M1.75788 14.4531C7.19772 14.4531 12.6376 14.4531 18.2423 14.4531C18.2423 16.7174 18.2423 16.7174 18.0176 16.9824C18.0001 17.004 17.9826 17.0255 17.9645 17.0477C17.7783 17.2032 17.5834 17.2412 17.3466 17.2414C17.3076 17.2417 17.3076 17.2417 17.2679 17.242C17.1813 17.2424 17.0947 17.2421 17.0081 17.2417C16.9453 17.2419 16.8824 17.2421 16.8196 17.2423C16.6471 17.2429 16.4746 17.2427 16.3021 17.2425C16.116 17.2423 15.9299 17.2428 15.7438 17.2432C15.3793 17.2438 15.0149 17.2439 14.6504 17.2437C14.3541 17.2435 14.0579 17.2436 13.7616 17.2438C13.6984 17.2438 13.6984 17.2438 13.6339 17.2439C13.5483 17.2439 13.4626 17.244 13.377 17.244C12.5739 17.2446 11.7708 17.2444 10.9676 17.2439C10.2328 17.2435 9.49796 17.244 8.76312 17.245C8.00865 17.2459 7.25418 17.2463 6.49971 17.246C6.07611 17.2459 5.65251 17.246 5.22891 17.2467C4.86832 17.2472 4.50774 17.2473 4.14715 17.2466C3.96317 17.2463 3.7792 17.2462 3.59522 17.2468C3.42677 17.2473 3.25833 17.2471 3.08988 17.2464C3.02897 17.2462 2.96807 17.2463 2.90717 17.2467C2.55147 17.2489 2.27477 17.2431 1.99134 17.0035C1.97392 16.982 1.9565 16.9606 1.93855 16.9385C1.91151 16.9066 1.91151 16.9066 1.88392 16.8741C1.45784 16.1875 1.75788 15.2612 1.75788 14.4531Z" fill="#CDCDCD"/>
</svg>
