<svg width="24" height="24" viewBox="0 0 24 24" fill="none" xmlns="http://www.w3.org/2000/svg">
<g clip-path="url(#clip0_78_1550)">
<path d="M21.2344 7.82812C21.3593 7.94667 21.4568 8.05898 21.5434 8.2077C21.5762 8.26333 21.5762 8.26333 21.6097 8.32008C21.6328 8.3598 21.6559 8.39951 21.6797 8.44043C21.7301 8.52575 21.7805 8.61101 21.8311 8.69623C21.8567 8.73935 21.8823 8.78247 21.9086 8.8269C22.0217 9.0154 22.1389 9.20122 22.2568 9.38672C22.2795 9.42251 22.3022 9.45831 22.3256 9.49519C22.3735 9.57062 22.4214 9.64604 22.4693 9.72146C22.7321 10.1356 22.9932 10.5508 23.25 10.9688C23.2723 11.0051 23.2947 11.0414 23.3177 11.0789C23.7129 11.7289 24.0055 12.408 24.0146 13.1777C24.016 13.2148 24.0173 13.2519 24.0187 13.2902C24.0244 13.825 23.7684 14.2611 23.5078 14.7129C23.4787 14.764 23.4496 14.8152 23.4197 14.8678C23.3322 15.0215 23.2443 15.1748 23.1562 15.3281C23.1089 15.411 23.0617 15.494 23.0145 15.577C22.8747 15.8224 22.7342 16.0675 22.5937 16.3125C22.4706 16.5273 22.3475 16.7421 22.2246 16.957C22.2087 16.9848 22.1928 17.0126 22.1764 17.0412C21.9507 17.4356 21.7279 17.8315 21.5068 18.2285C21.2903 18.6167 21.07 19.0025 20.8447 19.3857C20.8186 19.4304 20.7924 19.4751 20.7655 19.5211C20.7415 19.5616 20.7176 19.602 20.6929 19.6437C20.6718 19.6795 20.6507 19.7152 20.6289 19.7521C20.6122 19.7772 20.5954 19.8023 20.5781 19.8281C20.5626 19.8281 20.5472 19.8281 20.5312 19.8281C20.538 19.775 20.5448 19.7218 20.5517 19.667C20.7025 18.2567 20.3755 17.2377 19.6153 16.0516C19.4368 15.7725 19.2631 15.4904 19.0898 15.208C19.0582 15.1565 19.0266 15.105 18.994 15.052C18.9293 14.9466 18.8646 14.8412 18.7999 14.7358C18.6428 14.48 18.4855 14.2244 18.3281 13.9688C18.2656 13.8672 18.2031 13.7656 18.1406 13.6641C18.1097 13.6138 18.0787 13.5635 18.0469 13.5117C17.9062 13.2832 17.9062 13.2832 17.7656 13.0547C17.7346 13.0043 17.7036 12.954 17.6716 12.9021C17.6097 12.8014 17.5479 12.7007 17.4862 12.5999C17.3395 12.3607 17.1919 12.1222 17.0408 11.8857C16.9692 11.7734 16.898 11.6608 16.827 11.5481C16.7763 11.4683 16.7249 11.389 16.6734 11.3097C16.6431 11.2616 16.6128 11.2135 16.5816 11.1639C16.5545 11.1216 16.5274 11.0793 16.4994 11.0357C16.4531 10.9219 16.4531 10.9219 16.4808 10.8204C16.5551 10.7236 16.6191 10.6765 16.7248 10.6161C16.7615 10.5947 16.7982 10.5733 16.8359 10.5513C16.8759 10.5286 16.9158 10.5058 16.957 10.4824C17.043 10.4322 17.129 10.3818 17.2148 10.3314C17.2817 10.2921 17.2817 10.2921 17.35 10.2521C17.5656 10.1234 17.7769 9.98818 17.9883 9.85254C18.4884 9.53231 18.9916 9.21717 19.4956 8.903C19.6456 8.80939 19.7955 8.71558 19.9453 8.6217C19.9953 8.59037 20.0454 8.55904 20.0969 8.52675C20.1918 8.46731 20.2867 8.40784 20.3816 8.34834C20.6639 8.17164 20.9481 7.9984 21.2344 7.82812Z" fill="#CDCDCD"/>
<path d="M8.24318 0.451873C8.2874 0.451777 8.33162 0.451681 8.37719 0.451582C8.52303 0.451442 8.66885 0.452308 8.8147 0.4532C8.91834 0.453344 9.02198 0.453432 9.12562 0.453466C9.34376 0.453682 9.56189 0.454357 9.78003 0.455397C10.0528 0.456696 10.3255 0.457229 10.5982 0.457451C11.9879 0.4587 13.3765 0.478145 14.7656 0.515456C14.6531 0.627975 14.5749 0.643812 14.4229 0.688308C13.8948 0.859696 13.4452 1.13208 13.0312 1.49983C13.0015 1.5263 12.9717 1.55276 12.941 1.58003C12.5648 1.93535 12.3139 2.38916 12.0674 2.8387C12.0097 2.9427 11.952 3.04671 11.8943 3.15071C11.8652 3.20346 11.8361 3.25621 11.8061 3.31056C11.6683 3.55991 11.5296 3.80876 11.3906 4.05745C11.3636 4.10582 11.3366 4.15419 11.3088 4.20402C11.1203 4.54037 10.9269 4.87359 10.7314 5.20589C10.4851 5.6249 10.2501 6.04894 10.0203 6.47724C9.78629 6.91267 9.54244 7.34205 9.29489 7.76991C9.23937 7.86617 9.18439 7.96271 9.12964 8.0594C9.10039 8.11064 9.07115 8.16188 9.04102 8.21468C9.00458 8.27885 9.00458 8.27885 8.96741 8.34431C8.90625 8.43733 8.90625 8.43733 8.8125 8.48421C8.70576 8.43614 8.70576 8.43614 8.57098 8.35969C8.49557 8.31732 8.49557 8.31732 8.41864 8.27409C8.3634 8.24257 8.30817 8.21105 8.25293 8.17952C8.1957 8.14722 8.13845 8.11497 8.08118 8.08275C7.96202 8.01567 7.84295 7.94843 7.72396 7.88106C7.4549 7.72891 7.18442 7.57934 6.91406 7.42952C6.80883 7.37106 6.70361 7.31259 6.59839 7.2541C6.38507 7.13559 6.17168 7.01719 5.95825 6.89888C5.69545 6.75317 5.43281 6.60719 5.1703 6.46096C5.06564 6.40268 4.96093 6.34447 4.85619 6.28632C4.70411 6.20183 4.55222 6.11699 4.40039 6.03206C4.35424 6.00649 4.30809 5.98092 4.26054 5.95458C4.21859 5.93102 4.17664 5.90747 4.13342 5.88319C4.09656 5.86263 4.05969 5.84207 4.02171 5.82088C3.9375 5.76546 3.9375 5.76546 3.89062 5.67171C3.93587 5.5663 3.93587 5.5663 4.00818 5.43385C4.0348 5.38471 4.06143 5.33557 4.08886 5.28494C4.11819 5.23178 4.14752 5.17862 4.17773 5.12386C4.20793 5.06852 4.23811 5.01318 4.26826 4.95782C4.48572 4.55965 4.70804 4.1642 4.93274 3.77006C5.08523 3.50225 5.23384 3.23269 5.37984 2.96129C5.90894 1.97846 6.53893 0.864442 7.66382 0.498464C7.85718 0.449258 8.04463 0.449768 8.24318 0.451873Z" fill="#CDCDCD"/>
<path d="M0.328125 14.5312C0.467924 14.5932 0.553004 14.6571 0.65332 14.7715C1.31835 15.4536 2.3467 15.7425 3.27578 15.7571C3.3841 15.7579 3.49242 15.7585 3.60073 15.7589C3.69197 15.7595 3.78321 15.7601 3.87445 15.7607C3.97197 15.7613 4.06949 15.7618 4.16701 15.7622C4.37147 15.7632 4.57594 15.7645 4.7804 15.7658C5.21525 15.7686 5.65011 15.771 6.08496 15.7734C6.55283 15.776 7.02071 15.7787 7.48858 15.7818C7.69084 15.7831 7.89311 15.7842 8.09537 15.7851C8.19161 15.7856 8.28785 15.7862 8.38409 15.7868C8.50009 15.7876 8.61609 15.7882 8.73209 15.7886C9.1986 15.792 9.65742 15.8191 10.125 15.8438C10.125 17.7155 10.125 19.5872 10.125 21.5156C9.43181 21.5185 8.73861 21.5214 8.02441 21.5244C7.80738 21.5257 7.59034 21.527 7.36673 21.5283C7.09701 21.5289 7.09701 21.5289 6.96984 21.529C6.883 21.5293 6.79617 21.5297 6.70933 21.5305C5.7006 21.5384 4.50155 21.5004 3.72957 20.7468C3.51691 20.5144 3.3767 20.2494 3.23145 19.9717C3.17768 19.8707 3.12391 19.7696 3.07013 19.6686C3.04293 19.6172 3.01573 19.5658 2.98771 19.5128C2.86058 19.2733 2.73101 19.0351 2.60156 18.7969C2.55077 18.7031 2.49999 18.6094 2.44922 18.5156C2.42408 18.4692 2.39895 18.4228 2.37305 18.375C1.53516 16.8281 1.53516 16.8281 1.45887 16.6873C1.40848 16.5943 1.35808 16.5012 1.30767 16.4082C1.17472 16.1628 1.04191 15.9174 0.909302 15.6718C0.881657 15.6207 0.854013 15.5695 0.825531 15.5168C0.77257 15.4188 0.71965 15.3208 0.666779 15.2227C0.642881 15.1785 0.618983 15.1343 0.59436 15.0888C0.573446 15.0501 0.552531 15.0113 0.530983 14.9714C0.486296 14.891 0.439188 14.8118 0.390587 14.7337C0.328125 14.625 0.328125 14.625 0.328125 14.5312Z" fill="#CDCDCD"/>
<path d="M16.8653 1.29251C17.1072 1.52846 17.2947 1.77785 17.477 2.06153C17.5058 2.10544 17.5346 2.14936 17.5642 2.1946C17.6552 2.33381 17.7456 2.47341 17.8359 2.61304C17.8965 2.70596 17.9571 2.79886 18.0178 2.89173C18.1331 3.06845 18.2483 3.24531 18.3633 3.42228C18.5369 3.68914 18.7129 3.95438 18.8906 4.21851C19.4782 4.00483 20.0521 3.76559 20.625 3.51538C20.6405 3.54632 20.6559 3.57726 20.6719 3.60913C20.6259 3.71529 20.6259 3.71529 20.5527 3.84864C20.5258 3.89801 20.4989 3.94739 20.4713 3.99826C20.4418 4.0516 20.4122 4.10495 20.3818 4.15992C20.3515 4.21543 20.3211 4.27097 20.2908 4.32652C20.229 4.43975 20.167 4.55287 20.1047 4.66588C20.0024 4.852 19.9007 5.03852 19.7991 5.22509C19.7307 5.35068 19.6622 5.47619 19.5936 5.60169C19.4445 5.87464 19.2964 6.14811 19.1484 6.42163C18.9437 6.79977 18.7388 7.17778 18.5332 7.55542C18.5099 7.59829 18.4866 7.64117 18.4626 7.68534C18.4408 7.72531 18.419 7.76528 18.3966 7.80646C18.3777 7.84128 18.3587 7.87609 18.3392 7.91196C18.3201 7.94609 18.3009 7.98022 18.2812 8.01538C18.2666 8.05803 18.2519 8.10068 18.2368 8.14462C18.1406 8.24976 18.1406 8.24976 18.0414 8.26866C17.8973 8.27419 17.7552 8.27096 17.6111 8.26587C17.4912 8.26374 17.3714 8.2616 17.2516 8.25946C17.1839 8.25785 17.1162 8.25621 17.0485 8.25454C16.8088 8.24895 16.5691 8.24656 16.3293 8.24445C16.2402 8.24365 16.1511 8.24285 16.062 8.24205C16.0169 8.24164 15.9717 8.24124 15.9253 8.24082C15.6934 8.23861 15.4616 8.23586 15.2298 8.2331C15.1832 8.23254 15.1366 8.23199 15.0886 8.23142C14.9938 8.23029 14.8989 8.22916 14.8041 8.22803C14.5611 8.22515 14.3181 8.22235 14.0751 8.21955C13.6022 8.21408 13.1292 8.20851 12.6562 8.20288C12.6562 8.15648 12.6562 8.11007 12.6562 8.06226C12.727 8.00343 12.727 8.00343 12.826 7.94562C12.8799 7.91352 12.8799 7.91352 12.9349 7.88077C12.9735 7.85848 13.012 7.8362 13.0518 7.81324C13.1294 7.76728 13.2069 7.72126 13.2845 7.67517C13.3405 7.64207 13.3405 7.64207 13.3976 7.60829C13.5529 7.51478 13.702 7.41312 13.8501 7.30878C13.9219 7.26538 13.9219 7.26538 14.0156 7.26538C13.5722 6.47195 13.5722 6.47195 13.126 5.68013C13.0765 5.59235 13.0272 5.50442 12.9782 5.41632C12.8475 5.18214 12.7118 4.95359 12.5665 4.72809C12.1373 4.04941 12.1373 4.04941 12.1454 3.77594C12.2192 3.62072 12.3121 3.50724 12.4219 3.37476C12.4657 3.30543 12.5083 3.23536 12.55 3.16474C12.8263 2.69777 13.1284 2.2702 13.5 1.87476C13.5329 1.83935 13.5657 1.80394 13.5996 1.76746C14.0172 1.35774 14.618 1.09427 15.1875 0.984134C15.2465 0.972533 15.3054 0.960931 15.3662 0.948978C15.8738 0.901232 16.4666 0.941659 16.8653 1.29251Z" fill="#CDCDCD"/>
<path d="M5.43745 7.82795C5.76581 8.39177 6.07375 8.9661 6.38193 9.54113C6.52091 9.80031 6.66033 10.0592 6.79976 10.3182C6.82669 10.3682 6.85362 10.4183 6.88136 10.4699C7.01706 10.722 7.15318 10.9739 7.29011 11.2253C7.55609 11.7139 7.82 12.2022 8.06245 12.7029C7.90248 12.6708 7.77318 12.6091 7.62904 12.5334C7.58206 12.5088 7.53508 12.4842 7.48668 12.4589C7.41349 12.4202 7.41349 12.4202 7.33882 12.3807C7.29021 12.3552 7.2416 12.3298 7.19151 12.3036C6.97839 12.1916 6.76804 12.0783 6.56245 11.9529C6.27194 12.4075 5.98551 12.8643 5.70647 13.326C5.63832 13.4386 5.5693 13.5507 5.49958 13.6623C5.33847 13.9218 5.18833 14.1788 5.06447 14.4589C4.8221 14.9798 4.8221 14.9798 4.5937 15.1404C4.15071 15.2691 3.6843 15.1954 3.23433 15.1404C3.15527 15.1344 3.07617 15.1288 2.99702 15.124C2.08379 15.0586 1.35526 14.7507 0.703077 14.1092C0.669118 14.0758 0.635159 14.0425 0.600171 14.0081C0.153545 13.5394 -0.0296753 13.0296 -0.0150629 12.393C0.000219224 12.1004 0.0978699 11.882 0.234327 11.6248C0.274735 11.5461 0.315072 11.4673 0.355359 11.3884C0.475134 11.1557 0.597094 10.9242 0.719579 10.6929C0.847787 10.4503 0.974619 10.207 1.10151 9.96369C1.1361 9.89759 1.1361 9.89759 1.17138 9.83015C1.29904 9.58582 1.42435 9.34055 1.54683 9.09357C1.43461 9.00167 1.32231 8.90987 1.20991 8.81818C1.17619 8.79067 1.14246 8.76315 1.10772 8.7348C0.844043 8.52055 0.575725 8.31359 0.303541 8.1103C0.187452 8.01545 0.187452 8.01545 0.0937017 7.87482C0.617407 7.86863 1.14111 7.86251 1.66482 7.85649C1.90813 7.85369 2.15144 7.85086 2.39475 7.84798C4.46212 7.82349 4.46212 7.82349 5.43745 7.82795Z" fill="#CDCDCD"/>
<path d="M14.8594 14.25C14.8748 14.25 14.8903 14.25 14.9062 14.25C15.0336 14.8097 15.0055 15.4134 15 15.9844C15.0396 15.9816 15.0792 15.9788 15.12 15.9759C15.756 15.9345 16.3926 15.907 17.0298 15.8948C17.2034 15.8914 17.3769 15.8865 17.5504 15.8783C18.6746 15.8269 18.6746 15.8269 18.9506 16.0073C19.1158 16.179 19.205 16.3742 19.281 16.5977C19.3205 16.7103 19.3773 16.8063 19.4407 16.907C19.4726 16.9655 19.5041 17.0241 19.5352 17.083C19.5522 17.1152 19.5692 17.1474 19.5867 17.1806C20.059 18.102 20.218 19.0636 19.9073 20.0637C19.7283 20.5767 19.4328 21.0034 18.958 21.2754C18.3511 21.5408 17.5743 21.5072 16.9236 21.5559C16.7568 21.5684 16.5902 21.5813 16.4235 21.5942C16.3167 21.6023 16.2098 21.6104 16.103 21.6185C16.0536 21.6223 16.0042 21.6261 15.9533 21.6301C15.7129 21.6479 15.4755 21.6606 15.2344 21.6562C15.2309 21.727 15.2309 21.727 15.2274 21.7993C15.2077 22.1792 15.1811 22.5579 15.1436 22.9365C15.1401 22.9743 15.1366 23.012 15.133 23.0509C15.1142 23.2319 15.0873 23.3722 15 23.5312C14.7787 23.2204 14.5677 22.9048 14.3643 22.582C14.3066 22.491 14.2489 22.3999 14.1912 22.3088C14.1621 22.2628 14.133 22.2167 14.1029 22.1692C13.9649 21.9511 13.8262 21.7334 13.6875 21.5156C13.6329 21.4299 13.5784 21.3441 13.5238 21.2584C13.3854 21.0409 13.247 20.8234 13.1083 20.606C13.0535 20.5197 12.9989 20.4333 12.9447 20.3466C12.8116 20.1345 12.6751 19.9278 12.527 19.7258C12.4994 19.6867 12.4719 19.6477 12.4435 19.6074C12.3917 19.5342 12.3381 19.4622 12.2825 19.3918C12.2074 19.2833 12.1642 19.2083 12.1406 19.0781C12.201 18.8702 12.3078 18.6984 12.4219 18.5156C12.4707 18.4302 12.5195 18.3447 12.5682 18.2591C12.6199 18.1717 12.6717 18.0843 12.7236 17.9971C12.9653 17.5873 13.2 17.1744 13.4297 16.7578C13.6832 16.2984 13.9431 15.8433 14.2088 15.3908C14.4305 15.0132 14.6466 14.6327 14.8594 14.25Z" fill="#CDCDCD"/>
</g>
<defs>
<clipPath id="clip0_78_1550">
<rect width="24" height="24" fill="white"/>
</clipPath>
</defs>
</svg>
