<svg width="15" height="15" viewBox="0 0 15 15" fill="none" xmlns="http://www.w3.org/2000/svg">
<path d="M14.8211 0.0909258C14.9329 0.196823 14.9935 0.295553 15 0.450727C14.9916 0.738217 14.8581 0.999725 14.7493 1.26126C14.7245 1.32206 14.6998 1.38288 14.6751 1.44372C14.622 1.57443 14.5686 1.70498 14.5148 1.83542C14.4286 2.04443 14.3433 2.25377 14.2582 2.46319C14.2289 2.53516 14.1997 2.60713 14.1704 2.6791C14.1631 2.69705 14.1558 2.715 14.1483 2.73349C14.0959 2.8622 14.0434 2.99086 13.9909 3.1195C13.714 3.79805 13.4423 4.47866 13.1717 5.15975C13.0413 5.48769 12.9107 5.8155 12.7801 6.1433C12.7671 6.17584 12.7541 6.20839 12.7408 6.24192C12.4285 7.02505 12.1134 7.807 11.7982 8.58893C11.3379 9.73074 10.8806 10.8738 10.4256 12.0177C10.2806 12.382 10.1354 12.7461 9.9899 13.1102C9.94929 13.2118 9.90872 13.3134 9.86814 13.4151C9.79763 13.5917 9.72687 13.7681 9.65596 13.9446C9.6289 14.012 9.60191 14.0794 9.57499 14.1469C9.53769 14.2404 9.50014 14.3337 9.46252 14.427C9.45157 14.4546 9.44061 14.4822 9.42932 14.5107C9.36169 14.6775 9.29598 14.8309 9.16024 14.9541C9.00106 15.015 8.82511 15.0162 8.66687 14.9523C8.53886 14.84 8.46235 14.7098 8.38719 14.5585C8.37785 14.5398 8.36852 14.5211 8.3589 14.5019C8.3286 14.4411 8.29856 14.3802 8.26853 14.3193C8.24731 14.2765 8.22608 14.2338 8.20484 14.191C8.07763 13.9346 7.95246 13.6773 7.8296 13.4188C7.69887 13.1439 7.56526 12.8705 7.43164 12.597C7.38321 12.4979 7.33479 12.3988 7.28637 12.2997C7.2744 12.2752 7.26242 12.2506 7.25009 12.2254C7.13485 11.9894 7.02004 11.7533 6.90539 11.517C6.89593 11.4975 6.88647 11.478 6.87672 11.4579C6.83871 11.3796 6.8007 11.3013 6.7627 11.223C6.70456 11.1031 6.64638 10.9833 6.58817 10.8635C6.56828 10.8226 6.54841 10.7816 6.52855 10.7407C6.47944 10.6395 6.43011 10.5384 6.38029 10.4375C6.284 10.2419 6.19228 10.0459 6.10836 9.84462C5.90012 9.34121 5.90012 9.34121 5.47107 9.02923C5.42151 9.0101 5.37169 8.99159 5.32167 8.97367C5.18295 8.92155 5.05197 8.85311 4.91915 8.78774C4.85713 8.75816 4.79508 8.72867 4.73299 8.69925C4.4616 8.57001 4.1916 8.43792 3.92146 8.3061C3.54113 8.1206 3.16051 7.93574 2.77918 7.75229C2.4637 7.60047 2.14865 7.44776 1.8337 7.29483C1.61446 7.18839 1.39511 7.08219 1.17553 6.97647C1.11037 6.94507 1.04522 6.91366 0.980069 6.88224C0.939034 6.86248 0.897985 6.84274 0.856921 6.82304C0.168143 6.49252 0.168143 6.49252 0.0403351 6.34672C-0.015041 6.18085 -0.0141416 6.00484 0.0476442 5.84137C0.310674 5.58472 0.757333 5.47271 1.09387 5.34023C1.15553 5.31582 1.21718 5.2914 1.27882 5.26696C1.41107 5.21456 1.54336 5.16225 1.67567 5.11C1.99708 4.98309 2.3183 4.85568 2.63953 4.72829C2.71369 4.69888 2.78785 4.66948 2.86202 4.64008C3.61029 4.34349 4.35738 4.04401 5.10418 3.74376C6.18298 3.31006 7.26273 2.87879 8.34345 2.44985C9.58877 1.95556 10.8328 1.45816 12.0759 0.958417C12.2259 0.898161 12.3758 0.837982 12.5258 0.777989C12.7938 0.670733 13.0615 0.562893 13.3282 0.452386C13.4489 0.402452 13.5697 0.352971 13.6906 0.303538C13.7473 0.280203 13.8039 0.256651 13.8604 0.232863C14.5277 -0.0478416 14.5277 -0.0478416 14.8211 0.0909258ZM12.5242 1.76388C12.4404 1.79217 12.3594 1.82271 12.2774 1.85587C12.2515 1.86612 12.2257 1.87637 12.1991 1.88693C12.1119 1.92156 12.0248 1.95652 11.9378 1.99147C11.8757 2.01621 11.8137 2.04092 11.7516 2.06562C11.5823 2.13305 11.4131 2.20077 11.2439 2.26853C11.0829 2.33297 10.9219 2.3972 10.7608 2.46143C9.67758 2.89348 8.59539 3.32808 7.51329 3.76287C6.36985 4.22227 5.22501 4.6781 4.07964 5.13268C3.92827 5.19276 3.7769 5.25286 3.62557 5.31303C3.56606 5.33669 3.50655 5.36035 3.44704 5.384C3.4176 5.39571 3.38817 5.40741 3.35784 5.41947C3.1621 5.49725 2.96623 5.57473 2.7703 5.65206C2.63309 5.70625 2.49595 5.76061 2.35882 5.81499C2.2931 5.84102 2.22734 5.86697 2.16155 5.89285C2.07092 5.92851 1.98039 5.96441 1.88988 6.00038C1.86274 6.01099 1.83561 6.02159 1.80764 6.03252C1.78308 6.04234 1.75851 6.05216 1.7332 6.06227C1.71175 6.07075 1.69029 6.07922 1.66819 6.08796C1.61353 6.10996 1.61353 6.10996 1.58986 6.17158C1.61019 6.18136 1.63051 6.19114 1.65145 6.20122C2.14716 6.43982 2.64241 6.67932 3.13736 6.91948C3.15891 6.92993 3.18046 6.94039 3.20265 6.95116C3.23493 6.96682 3.23493 6.96682 3.26785 6.98279C3.53387 7.11185 3.8 7.24067 4.06615 7.36945C4.10586 7.38867 4.14556 7.40788 4.18527 7.42709C4.20491 7.4366 4.22456 7.4461 4.2448 7.4559C4.41072 7.5362 4.57659 7.6166 4.74245 7.69705C4.84545 7.74699 4.94848 7.79687 5.0516 7.84658C5.09086 7.86551 5.13011 7.88444 5.16937 7.90337C5.1883 7.9125 5.20724 7.92163 5.22675 7.93104C5.34612 7.98872 5.46492 8.04745 5.58347 8.10679C5.61209 8.12092 5.6407 8.13506 5.67018 8.14962C5.72201 8.17523 5.77366 8.2012 5.8251 8.22758C5.84742 8.23852 5.86974 8.24945 5.89274 8.26072C5.92119 8.27506 5.92119 8.27506 5.95022 8.2897C6.02658 8.30763 6.0546 8.28352 6.12149 8.24407C6.16123 8.20954 6.19955 8.17336 6.23679 8.13614C6.25953 8.11355 6.28227 8.09097 6.3057 8.06769C6.33049 8.04276 6.35529 8.01783 6.38085 7.99215C6.40733 7.96575 6.43381 7.93936 6.4611 7.91217C6.53464 7.83888 6.60799 7.76541 6.68131 7.69191C6.76041 7.61269 6.83967 7.53364 6.91891 7.45457C7.05618 7.31754 7.19335 7.18041 7.33045 7.0432C7.52866 6.84482 7.72704 6.64661 7.92546 6.44843C8.24737 6.1269 8.56915 5.80524 8.89084 5.4835C9.20336 5.17094 9.51594 4.85845 9.8286 4.54603C9.85751 4.51715 9.85751 4.51715 9.887 4.48768C9.98366 4.3911 10.0803 4.29451 10.177 4.19792C10.9791 3.39649 11.781 2.59485 12.5827 1.79307C12.5634 1.78344 12.5441 1.77381 12.5242 1.76388ZM13.2259 2.43525C11.0744 4.58335 8.92291 6.73144 6.70621 8.94463C6.75002 9.07585 6.79498 9.1886 6.85525 9.31168C6.86419 9.33002 6.87313 9.34836 6.88235 9.36725C6.91185 9.42772 6.94151 9.48811 6.97117 9.5485C6.99216 9.59145 7.01313 9.6344 7.0341 9.67735C7.07802 9.76731 7.122 9.85725 7.16602 9.94717C7.26105 10.1414 7.35554 10.3358 7.45006 10.5303C7.49162 10.6158 7.53321 10.7012 7.57479 10.7867C7.72426 11.0939 7.87354 11.4011 8.02269 11.7084C8.04186 11.7479 8.06103 11.7874 8.08021 11.8269C8.0897 11.8465 8.0992 11.8661 8.10898 11.8862C8.17002 12.0119 8.23114 12.1376 8.29233 12.2633C8.33456 12.35 8.37677 12.4368 8.41898 12.5235C8.43887 12.5644 8.45877 12.6053 8.47869 12.6461C8.60229 12.8997 8.72319 13.1542 8.84047 13.4107C8.94144 13.3603 8.9616 13.2392 9.00103 13.1384C9.01131 13.1126 9.02159 13.0868 9.03218 13.0602C9.06679 12.9731 9.10112 12.886 9.13546 12.7989C9.16007 12.7368 9.1847 12.6748 9.20935 12.6128C9.26256 12.4789 9.31565 12.3449 9.36865 12.2108C9.45345 11.9964 9.53852 11.7821 9.62368 11.5678C9.63086 11.5497 9.63803 11.5317 9.64543 11.5131C9.68203 11.421 9.71863 11.3289 9.75523 11.2368C9.78502 11.1619 9.81479 11.0869 9.84455 11.012C10.1427 10.2614 10.4439 9.51206 10.7461 8.76306C11.2331 7.55553 11.717 6.34674 12.1987 5.13706C12.2235 5.0748 12.2483 5.01255 12.2731 4.95029C12.3333 4.79917 12.3934 4.64803 12.4535 4.49686C12.5667 4.21218 12.6805 3.92773 12.7955 3.64376C12.8509 3.50715 12.9061 3.37047 12.9613 3.23379C12.9878 3.1683 13.0144 3.10285 13.0411 3.03743C13.0778 2.94731 13.1143 2.85709 13.1507 2.76684C13.1673 2.72642 13.1673 2.72642 13.1843 2.68519C13.199 2.6484 13.199 2.6484 13.2141 2.61087C13.2228 2.58952 13.2315 2.56816 13.2404 2.54615C13.2622 2.49129 13.2622 2.49129 13.2259 2.43525Z" fill="#121212"/>
</svg>
