<svg width="20" height="20" viewBox="0 0 20 20" fill="none" xmlns="http://www.w3.org/2000/svg">
<g clip-path="url(#clip0_113_1638)">
<path d="M3.14047 1.69897C3.20243 1.69879 3.2644 1.69854 3.32637 1.69823C3.49478 1.69759 3.66317 1.6979 3.83158 1.69839C4.01393 1.69874 4.19628 1.69819 4.37862 1.69776C4.73511 1.69707 5.09158 1.69722 5.44807 1.69767C5.73796 1.69803 6.02785 1.69807 6.31775 1.6979C6.35911 1.69788 6.40048 1.69785 6.4431 1.69783C6.52715 1.69778 6.6112 1.69773 6.69525 1.69768C7.48215 1.69723 8.26904 1.69774 9.05593 1.69858C9.73014 1.69928 10.4043 1.69916 11.0785 1.69844C11.8628 1.6976 12.647 1.69728 13.4312 1.69776C13.5149 1.69781 13.5986 1.69785 13.6824 1.6979C13.7236 1.69793 13.7647 1.69795 13.8072 1.69798C14.0965 1.69811 14.3858 1.69788 14.6751 1.69752C15.028 1.69708 15.381 1.6972 15.7339 1.69803C15.9137 1.69844 16.0935 1.6986 16.2733 1.69808C16.4383 1.69761 16.6033 1.69788 16.7683 1.6987C16.8276 1.69888 16.8869 1.69879 16.9462 1.69841C17.4626 1.69534 17.9824 1.76962 18.4449 2.01422C18.4704 2.02743 18.4958 2.04063 18.5221 2.05424C19.1706 2.40595 19.6461 2.98441 19.8877 3.68138C20.0033 4.07802 20.0207 4.44458 20.0153 4.85587C20.015 4.92246 20.0148 4.98906 20.0146 5.05566C20.0141 5.22886 20.0125 5.40204 20.0108 5.57523C20.0092 5.75279 20.0085 5.93036 20.0077 6.10793C20.006 6.45479 20.0034 6.80164 20.0001 7.1485C19.9708 7.14856 19.9416 7.14861 19.9115 7.14867C19.198 7.15012 18.4846 7.15244 17.7711 7.15568C17.4261 7.15723 17.081 7.1585 16.736 7.15908C16.435 7.1596 16.134 7.16065 15.833 7.16235C15.6738 7.16323 15.5147 7.16385 15.3556 7.16381C15.2052 7.16378 15.0549 7.16449 14.9046 7.16573C14.85 7.16606 14.7953 7.16614 14.7406 7.16591C13.9111 7.163 13.1812 7.42916 12.5782 8.00787C12.0655 8.53442 11.7874 9.27064 11.7774 10.0001C11.7878 10.7593 12.0857 11.4864 12.6172 12.0313C13.2304 12.618 13.9883 12.8373 14.8205 12.8339C14.8775 12.8342 14.9346 12.8346 14.9916 12.8351C15.1443 12.8362 15.2969 12.8363 15.4496 12.8363C15.6099 12.8364 15.7703 12.8374 15.9307 12.8383C16.2333 12.8399 16.536 12.8407 16.8387 12.8412C17.1837 12.8418 17.5287 12.8433 17.8737 12.8449C18.5825 12.8481 19.2913 12.8502 20.0001 12.8516C20.0037 13.2337 20.0065 13.6157 20.0082 13.9978C20.009 14.1752 20.0101 14.3527 20.0118 14.5302C20.0136 14.7019 20.0145 14.8736 20.0149 15.0453C20.0152 15.1104 20.0157 15.1754 20.0166 15.2405C20.0271 16.0795 19.7922 16.7913 19.2188 17.4219C18.9866 17.6552 18.7378 17.8322 18.4473 17.9835C18.4246 17.9956 18.4018 18.0077 18.3784 18.0201C17.8997 18.2529 17.3841 18.3045 16.8596 18.3012C16.7977 18.3013 16.7357 18.3016 16.6737 18.3019C16.5053 18.3025 16.3369 18.3022 16.1685 18.3017C15.9862 18.3014 15.8038 18.3019 15.6215 18.3024C15.265 18.3031 14.9085 18.3029 14.552 18.3025C14.2622 18.3021 13.9723 18.302 13.6824 18.3022C13.641 18.3022 13.5996 18.3023 13.557 18.3023C13.473 18.3023 13.3889 18.3024 13.3049 18.3024C12.518 18.3029 11.7311 18.3024 10.9442 18.3015C10.27 18.3008 9.59577 18.301 8.92157 18.3017C8.13736 18.3025 7.35315 18.3028 6.56894 18.3024C6.48521 18.3023 6.40148 18.3023 6.31775 18.3022C6.27656 18.3022 6.23537 18.3022 6.19293 18.3021C5.90361 18.302 5.61429 18.3022 5.32497 18.3026C4.97206 18.303 4.61916 18.3029 4.26625 18.3021C4.08643 18.3017 3.90661 18.3015 3.72678 18.302C3.56177 18.3025 3.39678 18.3022 3.23177 18.3014C3.17247 18.3012 3.11318 18.3013 3.05388 18.3017C2.53748 18.3048 2.0177 18.2305 1.55523 17.9859C1.52975 17.9727 1.50427 17.9595 1.47801 17.9459C0.792348 17.574 0.307947 16.9501 0.0728841 16.2081C-0.0528224 15.7547 -0.022103 15.2755 -0.0203688 14.8093C-0.0200119 14.6671 -0.0205627 14.5249 -0.0209908 14.3827C-0.0216822 14.1049 -0.021537 13.8271 -0.0210826 13.5493C-0.0207284 13.3233 -0.0206824 13.0974 -0.0208519 12.8714C-0.0208758 12.8391 -0.0208997 12.8069 -0.0209243 12.7736C-0.0209743 12.708 -0.021025 12.6424 -0.0210763 12.5768C-0.0215209 11.9632 -0.0210112 11.3495 -0.02017 10.7359C-0.019472 10.2104 -0.0195934 9.68496 -0.0203137 9.15949C-0.0211516 8.5479 -0.0214779 7.93631 -0.0209991 7.32472C-0.0209494 7.25938 -0.0209004 7.19405 -0.0208519 7.12872C-0.0208278 7.09658 -0.0208037 7.06445 -0.0207789 7.03134C-0.0206445 6.80589 -0.0208705 6.58044 -0.0212393 6.35499C-0.0216795 6.07989 -0.0215549 5.8048 -0.0207267 5.52971C-0.0203187 5.3896 -0.0201507 5.2495 -0.0206719 5.10939C-0.0240332 4.1227 0.0928116 3.33548 0.781307 2.57819C1.01355 2.34496 1.26235 2.16788 1.55279 2.01666C1.57553 2.00456 1.59827 1.99246 1.6217 1.97999C2.10046 1.7472 2.61601 1.69558 3.14047 1.69897Z" fill="#CDCDCD"/>
<path d="M15.0287 8.23784C15.083 8.23785 15.1373 8.23785 15.1916 8.23783C15.3384 8.23782 15.4852 8.23804 15.632 8.23832C15.7856 8.23856 15.9393 8.23858 16.0929 8.23863C16.3836 8.23875 16.6742 8.23907 16.9649 8.23947C17.3578 8.23998 17.7508 8.24019 18.1437 8.24042C18.7625 8.24079 19.3812 8.24157 19.9999 8.24228C19.9999 9.40243 19.9999 10.5626 19.9999 11.7579C18.6407 11.7626 18.6407 11.7626 18.0688 11.7636C17.6747 11.7643 17.2806 11.7651 16.8865 11.7667C16.5995 11.7679 16.3124 11.7687 16.0253 11.7689C15.8735 11.7691 15.7217 11.7694 15.5699 11.7703C15.4266 11.7711 15.2833 11.7713 15.14 11.7712C15.0632 11.7712 14.9864 11.7718 14.9097 11.7725C14.4103 11.7708 13.965 11.7033 13.5546 11.4063C13.5135 11.3773 13.4724 11.3483 13.4301 11.3185C13.0687 10.9651 12.8768 10.5423 12.8501 10.0384C12.8551 9.61397 12.9923 9.24704 13.2421 8.90634C13.2687 8.86847 13.2953 8.83061 13.3227 8.79159C13.7635 8.27616 14.4035 8.23611 15.0287 8.23784ZM14.1259 9.71689C14.048 9.87265 14.0289 9.98563 14.0624 10.1563C14.1516 10.3348 14.2648 10.4736 14.453 10.547C14.6356 10.5702 14.8161 10.5688 14.9999 10.5665C15.0491 10.5671 15.0982 10.5677 15.1488 10.5683C15.4978 10.5695 15.4978 10.5695 15.7812 10.3907C15.9136 10.2373 15.9638 10.1192 15.9524 9.92013C15.9185 9.74741 15.8166 9.64286 15.6924 9.52585C15.4899 9.39541 15.231 9.43084 14.9999 9.43368C14.9508 9.43308 14.9016 9.43248 14.851 9.43185C14.5117 9.43329 14.3506 9.45664 14.1259 9.71689Z" fill="#CDCDCD"/>
</g>
<defs>
<clipPath id="clip0_113_1638">
<rect width="20" height="20" fill="white"/>
</clipPath>
</defs>
</svg>
